<svg version="1.2" xmlns="http://www.w3.org/2000/svg" viewBox="0 0 172 172" width="24" height="24">
	<style>
		.s0 { fill: #000000 } 
	</style>
	<path class="s0" d="m109.22 32.01l0.23-7.75q0.04-1.14 0.52-2.17 0.49-1.02 1.36-1.77 0.86-0.74 1.95-1.08 1.1-0.33 2.23-0.2h0.05q1.13 0.08 2.14 0.57 1.02 0.49 1.78 1.32 0.77 0.83 1.18 1.88 0.41 1.05 0.42 2.18l0.02 7.02q0 0.33 0.11 0.65 0.12 0.31 0.33 0.57 0.2 0.26 0.49 0.43 0.28 0.18 0.61 0.25 19 4.21 24.9 23.03 0.12 0.4 0.37 0.73 0.25 0.34 0.59 0.57 0.35 0.23 0.75 0.34 0.4 0.11 0.81 0.08 12.53-0.94 19.03 9.59c3.41 5.54 4.01 22.23 0.81 28.78q-5.72 11.73-20.38 11.41-0.33-0.01-0.64 0.09-0.31 0.09-0.58 0.28-0.27 0.19-0.46 0.46-0.2 0.26-0.3 0.58-7.59 23.47-33.04 23.63-15.16 0.1-47.47 0.08c-13.68 0-21.32 8.66-30.47 17.55q-0.96 0.93-2.18 1.49-1.22 0.55-2.55 0.65-1.33 0.1-2.62-0.25-1.29-0.36-2.38-1.14-3.22-2.29-3.22-7.62-0.11-31.92-0.16-34.39 0-0.31-0.12-0.59-0.12-0.27-0.34-0.49-0.22-0.21-0.5-0.32-0.29-0.11-0.6-0.11c-19.86 0.42-22.82-14.69-21.68-31.02 0.73-10.58 8.22-18.71 19.6-18.61q1.46 0 2.45-0.03 0.36-0.01 0.71-0.14 0.34-0.13 0.63-0.36 0.29-0.22 0.5-0.53 0.21-0.3 0.31-0.66 5.62-18.87 24.81-22.85 0.31-0.07 0.59-0.23 0.27-0.17 0.48-0.42 0.2-0.24 0.32-0.54 0.11-0.31 0.11-0.63l0.11-7.62q0.01-1.04 0.39-2.01 0.38-0.97 1.09-1.74 0.7-0.77 1.64-1.24 0.93-0.46 1.97-0.57l0.42-0.05q1.13-0.17 2.22 0.14 1.1 0.31 1.97 1.05 0.87 0.73 1.36 1.76 0.48 1.03 0.51 2.17l0.1 7.41q0.01 0.36 0.15 0.7 0.15 0.33 0.41 0.59 0.26 0.25 0.6 0.39 0.34 0.14 0.71 0.14h43.37q0.29 0 0.55-0.11 0.27-0.11 0.48-0.31 0.21-0.2 0.32-0.46 0.12-0.26 0.13-0.55zm-72.79 102.87c11.62-10.34 21.11-13.23 37.67-13.15q20.67 0.08 41.72 0.02c16.67-0.02 21.53-11.72 20.91-27.01-0.5-12.09 2.08-30.57-2.71-40.16q-4.6-9.21-17.62-9.23-37.13-0.11-57.62-0.21c-10.19-0.05-15.75 1.58-20.95 9.38q-2.65 3.98-2.6 17.53 0.13 61.01 0.08 62.34-0.01 0.2 0.09 0.36 0.11 0.17 0.29 0.25 0.18 0.08 0.38 0.05 0.2-0.03 0.36-0.17zm-12.95-39.62v-23.71q0-0.37-0.15-0.72-0.14-0.35-0.41-0.62-0.26-0.27-0.61-0.41-0.35-0.14-0.73-0.15h-0.73c-1.18 0-2.35 0.22-3.45 0.63-1.09 0.42-2.09 1.03-2.93 1.8-0.83 0.76-1.5 1.68-1.95 2.68q-0.69 1.52-0.69 3.16v10.97q0 1.65 0.69 3.17c0.45 1 1.12 1.91 1.95 2.68 0.84 0.77 1.84 1.38 2.93 1.79 1.1 0.42 2.27 0.63 3.45 0.63h0.73q0.38 0 0.73-0.14 0.35-0.15 0.61-0.42 0.27-0.26 0.41-0.61 0.15-0.35 0.15-0.73zm124.89-23.63v23.55q0 0.39 0.15 0.75 0.15 0.36 0.42 0.63 0.28 0.28 0.64 0.43 0.36 0.14 0.74 0.14h0.73c1.19 0 2.36-0.21 3.45-0.64 1.1-0.42 2.09-1.04 2.93-1.82 0.84-0.78 1.5-1.71 1.96-2.74 0.45-1.02 0.68-2.11 0.68-3.22v-10.61c0-1.1-0.23-2.2-0.68-3.22-0.46-1.02-1.12-1.95-1.96-2.73-0.84-0.78-1.83-1.4-2.93-1.83-1.09-0.42-2.26-0.64-3.45-0.64h-0.73q-0.38 0-0.74 0.15-0.36 0.15-0.64 0.42-0.27 0.28-0.42 0.63-0.15 0.36-0.15 0.75z"/>
	<path fill-rule="evenodd" class="s0" d="m62.5 87.31c-4.28 0-7.75-3.47-7.75-7.75 0-4.28 3.47-7.75 7.75-7.75 4.29 0 7.75 3.47 7.75 7.75 0 4.28-3.46 7.75-7.75 7.75z"/>
	<path fill-rule="evenodd" class="s0" d="m109.32 87.31c-4.27 0-7.72-3.45-7.72-7.72 0-4.27 3.45-7.73 7.72-7.73 4.27 0 7.73 3.46 7.73 7.73 0 4.27-3.46 7.72-7.73 7.72z"/>
</svg>