<svg version="1.2" xmlns="http://www.w3.org/2000/svg" viewBox="0 0 500 500" width="500" height="500">
	<title>car_crash</title>
	<style>
		.s0 { fill: none;stroke: #285ff4;paint-order:stroke fill markers;stroke-linecap: round;stroke-linejoin: round;stroke-width: 18.2 } 
		.s1 { fill: #285ff4 } 
	</style>
	<path id="wheel 1" fill-rule="evenodd" class="s0" d="m152.2 329.5l-8.7 33.4c-4 15.7-20 25.1-35.7 21-15.7-4.1-25.1-20.1-21-35.7l8.7-33.4z"/>
	<path id="wheel 2" fill-rule="evenodd" class="s0" d="m347.2 385.1l-10 33c-4.8 15.5-21.1 24.2-36.6 19.5-15.5-4.8-24.2-21.2-19.5-36.6l10.1-33z"/>
	<path id="mirror" fill-rule="evenodd" class="s1" d="m434.8 206.9c5.1 1 8.4 5.9 7.5 10.9l-5.1 26.3c-1 5.1-5.9 8.4-11 7.4-5-1-8.4-5.9-7.4-10.9l5.1-26.3c0.9-5.1 5.9-8.4 10.9-7.4z"/>
	<path id="light 1" fill-rule="evenodd" class="s1" d="m153.7 280c-9.3 0-16.9-8-16.9-17.8 0-9.8 7.6-17.8 16.9-17.8 9.4 0 16.9 8 16.9 17.8 0 9.8-7.5 17.8-16.9 17.8z"/>
	<path id="light 2" fill-rule="evenodd" class="s1" d="m328 326.2c-9.3 0-16.9-7.5-16.9-16.9 0-9.3 7.6-16.9 16.9-16.9 9.4 0 16.9 7.6 16.9 16.9 0 9.4-7.5 16.9-16.9 16.9z"/>
	<path id="car" class="s1" d="m393.8 388.7c-3.9 13.6-18.2 21.5-31.9 17.5l-285.3-83.1c-13.7-4-21.5-18.3-17.6-31.9zm-305.7-180.7c6.3 1.4 10.3 7.6 8.9 13.9l-15.5 69.2c-1.4 6.3-7.6 10.3-13.9 8.9-6.3-1.4-10.2-7.7-8.8-13.9l15.4-69.3c1.4-6.3 7.6-10.2 13.9-8.8zm331.5 66.3c5.8 1.8 9.1 7.9 7.4 13.7l-27.2 91.2c-3.5 11.6-15.7 18.2-27.3 14.7l33.5-112.2c1.7-5.8 7.8-9.1 13.6-7.4zm-34.9-32.5l38.4 26.4c5.6 3.8 7 11.4 3.2 17-3.8 5.5-11.5 6.9-17 3.1l-38.4-26.4c-5.6-3.8-7-11.4-3.2-17 3.8-5.5 11.4-6.9 17-3.1zm-95.9-26.7l82.7 21.1c5.7 1.4 9.2 7.3 7.7 13-1.5 5.7-7.3 9.1-13 7.7l-82.7-21.2c-5.7-1.4-9.1-7.2-7.7-12.9 1.5-5.8 7.3-9.2 13-7.7zm65.5-83.9l23.9 9.8c5.4 2.3 8 8.5 5.7 14-2.2 5.4-8.4 8-13.9 5.8l-23.9-9.9c-5.4-2.2-8-8.5-5.8-13.9 2.3-5.5 8.5-8.1 14-5.8zm19.1 10.1c10.8 0 19.5 8.7 19.5 19.5v86.3c0 5.4-4.4 9.8-9.8 9.8-5.4 0-9.7-4.4-9.7-9.8v-105.8z"/>
	<path id="fire" fill-rule="evenodd" class="s1" d="m78.1 117.9c3.8-2.6 9-1.8 11.7 1.9l55.2 74.7c2.6 3.6 1.8 8.7-2 11.3-3.8 2.6-9 1.7-11.7-1.9l-55.2-74.8c-2.7-3.6-1.8-8.6 2-11.2z"/>
	<path id="fire" fill-rule="evenodd" class="s1" d="m178.6 152.5c-1.6 4.3-6.3 6.6-10.7 5.3l-88.4-28.5c-4.3-1.4-6.5-6-5-10.3 1.6-4.3 6.3-6.7 10.6-5.3l88.5 28.5c4.3 1.3 6.5 6 5 10.3z"/>
	<path id="fire" fill-rule="evenodd" class="s1" d="m170.2 159.1c-4.4-1.2-7-5.4-5.9-9.4l23.2-83.2c1.1-4 5.6-6.4 10-5.2 4.4 1.1 7 5.4 5.9 9.4l-23.2 83.2c-1.2 4-5.6 6.4-10 5.2z"/>
	<path id="fire" fill-rule="evenodd" class="s1" d="m192 62.8c4.2-1.7 8.9 0.1 10.5 4l33.7 81.4c1.6 4-0.5 8.6-4.7 10.4-4.2 1.8-8.9 0-10.5-4l-33.7-81.4c-1.6-4 0.5-8.6 4.7-10.4z"/>
	<path id="fire" fill-rule="evenodd" class="s1" d="m315.7 115.3c1.7 4.3-0.2 9-4.1 10.5l-81.9 32.5c-4 1.6-8.6-0.6-10.3-4.8-1.7-4.2 0.1-8.9 4.1-10.5l81.9-32.4c4-1.6 8.6 0.5 10.3 4.7z"/>
	<path id="fire" fill-rule="evenodd" class="s1" d="m315.1 112.4c3.6 2.7 4.5 7.7 2 11.2l-52.6 70.6c-2.6 3.4-7.6 4-11.3 1.3-3.7-2.6-4.6-7.6-2-11.1l52.6-70.6c2.6-3.5 7.6-4.1 11.3-1.4z"/>
</svg>