<?xml version="1.0" encoding="UTF-8" standalone="no"?>
<!DOCTYPE svg PUBLIC "-//W3C//DTD SVG 1.1//EN" "http://www.w3.org/Graphics/SVG/1.1/DTD/svg11.dtd">
<svg xmlns="http://www.w3.org/2000/svg" version="1.1" viewBox="0.00 0.00 317.00 74.00">
<g stroke-width="2.00" fill="none" stroke-linecap="butt">
<path stroke="#7f804d" vector-effect="non-scaling-stroke" d="
  M 260.11 14.81
  Q 260.30 15.36 259.71 16.61
  A 0.36 0.36 0.0 0 0 260.30 16.99
  Q 261.80 15.25 263.17 16.90
  A 0.34 0.34 0.0 0 0 263.76 16.71
  Q 263.81 16.29 263.52 15.62
  A 1.17 0.85 64.7 0 1 263.77 14.30
  Q 265.06 13.54 264.99 13.32
  Q 264.86 12.93 263.37 13.10
  A 1.17 0.85 78.5 0 1 262.38 12.18
  Q 262.20 11.48 261.91 11.17
  A 0.34 0.34 0.0 0 0 261.32 11.37
  Q 261.22 13.52 258.98 13.02
  A 0.36 0.36 0.0 0 0 258.73 13.68
  Q 259.95 14.33 260.11 14.81"
/>
<path stroke="#7f804d" vector-effect="non-scaling-stroke" d="
  M 248.41 17.98
  Q 248.58 18.54 247.97 19.78
  A 0.36 0.36 0.0 0 0 248.55 20.17
  Q 250.09 18.45 251.42 20.13
  A 0.34 0.34 0.0 0 0 252.02 19.95
  Q 252.08 19.53 251.80 18.85
  A 1.17 0.85 65.7 0 1 252.08 17.53
  Q 253.38 16.79 253.32 16.58
  Q 253.19 16.19 251.70 16.33
  A 1.17 0.85 79.5 0 1 250.72 15.40
  Q 250.55 14.68 250.27 14.37
  A 0.34 0.34 0.0 0 0 249.68 14.56
  Q 249.54 16.71 247.30 16.17
  A 0.36 0.36 0.0 0 0 247.05 16.83
  Q 248.26 17.50 248.41 17.98"
/>
<path stroke="#7f804d" vector-effect="non-scaling-stroke" d="
  M 271.80 17.99
  Q 271.98 18.55 271.38 19.80
  A 0.36 0.36 0.0 0 0 271.97 20.19
  Q 273.49 18.44 274.86 20.11
  A 0.34 0.34 0.0 0 0 275.45 19.92
  Q 275.50 19.50 275.22 18.82
  A 1.17 0.85 64.9 0 1 275.48 17.49
  Q 276.78 16.73 276.71 16.52
  Q 276.58 16.12 275.08 16.28
  A 1.17 0.85 78.7 0 1 274.08 15.36
  Q 273.91 14.65 273.62 14.34
  A 0.34 0.34 0.0 0 0 273.02 14.54
  Q 272.92 16.70 270.66 16.19
  A 0.36 0.36 0.0 0 0 270.41 16.85
  Q 271.64 17.51 271.80 17.99"
/>
<path stroke="#7f804d" vector-effect="non-scaling-stroke" d="
  M 280.38 26.52
  Q 280.55 27.06 279.97 28.27
  A 0.35 0.35 0.0 0 0 280.54 28.65
  Q 282.02 26.96 283.34 28.59
  A 0.33 0.33 0.0 0 0 283.92 28.41
  Q 283.97 28.00 283.70 27.34
  A 1.14 0.83 65.2 0 1 283.95 26.05
  Q 285.22 25.32 285.16 25.11
  Q 285.03 24.72 283.58 24.87
  A 1.14 0.83 79.0 0 1 282.61 23.97
  Q 282.45 23.28 282.17 22.98
  A 0.33 0.33 0.0 0 0 281.59 23.17
  Q 281.47 25.27 279.28 24.76
  A 0.35 0.35 0.0 0 0 279.04 25.40
  Q 280.23 26.05 280.38 26.52"
/>
<path stroke="#7f804d" vector-effect="non-scaling-stroke" d="
  M 239.84 26.51
  Q 240.01 27.04 239.44 28.23
  A 0.34 0.34 0.0 0 0 240.01 28.60
  Q 241.45 26.94 242.75 28.54
  A 0.32 0.32 0.0 0 0 243.32 28.36
  Q 243.37 27.96 243.10 27.31
  A 1.12 0.81 65.1 0 1 243.35 26.05
  Q 244.59 25.33 244.52 25.13
  Q 244.40 24.75 242.97 24.90
  A 1.12 0.81 78.9 0 1 242.03 24.02
  Q 241.86 23.34 241.59 23.04
  A 0.32 0.32 0.0 0 0 241.02 23.23
  Q 240.91 25.29 238.77 24.79
  A 0.34 0.34 0.0 0 0 238.53 25.43
  Q 239.69 26.05 239.84 26.51"
/>
<path stroke="#7f804d" vector-effect="non-scaling-stroke" d="
  M 236.68 38.34
  Q 236.86 38.88 236.27 40.10
  A 0.35 0.35 0.0 0 0 236.85 40.48
  Q 238.33 38.78 239.66 40.41
  A 0.33 0.33 0.0 0 0 240.24 40.23
  Q 240.29 39.82 240.01 39.15
  A 1.14 0.83 65.0 0 1 240.27 37.86
  Q 241.54 37.12 241.47 36.91
  Q 241.34 36.53 239.88 36.68
  A 1.14 0.83 78.9 0 1 238.91 35.78
  Q 238.75 35.09 238.46 34.78
  A 0.33 0.33 0.0 0 0 237.89 34.98
  Q 237.77 37.08 235.58 36.58
  A 0.35 0.35 0.0 0 0 235.34 37.23
  Q 236.53 37.87 236.68 38.34"
/>
<path stroke="#7f804d" vector-effect="non-scaling-stroke" d="
  M 283.52 38.29
  Q 283.69 38.83 283.10 40.05
  A 0.35 0.35 0.0 0 0 283.67 40.43
  Q 285.16 38.74 286.48 40.37
  A 0.33 0.33 0.0 0 0 287.06 40.20
  Q 287.11 39.79 286.84 39.12
  A 1.14 0.83 65.3 0 1 287.10 37.83
  Q 288.37 37.10 288.30 36.89
  Q 288.18 36.51 286.72 36.65
  A 1.14 0.83 79.1 0 1 285.76 35.75
  Q 285.59 35.06 285.31 34.75
  A 0.33 0.33 0.0 0 0 284.74 34.94
  Q 284.61 37.04 282.42 36.53
  A 0.35 0.35 0.0 0 0 282.18 37.17
  Q 283.36 37.82 283.52 38.29"
/>
<path stroke="#7f804d" vector-effect="non-scaling-stroke" d="
  M 242.62 48.21
  A 0.30 0.30 0.0 0 1 242.33 48.00
  L 241.77 46.32
  A 0.30 0.30 0.0 0 0 241.21 46.32
  L 240.65 48.00
  A 0.30 0.30 0.0 0 1 240.36 48.21
  L 238.60 48.22
  A 0.30 0.30 0.0 0 0 238.42 48.76
  L 239.84 49.81
  A 0.30 0.30 0.0 0 1 239.95 50.14
  L 239.42 51.83
  A 0.30 0.30 0.0 0 0 239.88 52.16
  L 241.32 51.13
  A 0.30 0.30 0.0 0 1 241.66 51.13
  L 243.10 52.16
  A 0.30 0.30 0.0 0 0 243.56 51.83
  L 243.03 50.14
  A 0.30 0.30 0.0 0 1 243.14 49.81
  L 244.56 48.76
  A 0.30 0.30 0.0 0 0 244.38 48.22
  L 242.62 48.21"
/>
<path stroke="#7f804d" vector-effect="non-scaling-stroke" d="
  M 280.25 49.93
  Q 280.44 50.49 279.84 51.75
  A 0.36 0.36 0.0 0 0 280.43 52.13
  Q 281.95 50.38 283.32 52.06
  A 0.34 0.34 0.0 0 0 283.92 51.87
  Q 283.97 51.44 283.69 50.76
  A 1.18 0.85 64.9 0 1 283.94 49.43
  Q 285.25 48.67 285.18 48.45
  Q 285.05 48.06 283.55 48.22
  A 1.18 0.85 78.7 0 1 282.55 47.30
  Q 282.37 46.58 282.08 46.27
  A 0.34 0.34 0.0 0 0 281.49 46.47
  Q 281.38 48.63 279.11 48.13
  A 0.36 0.36 0.0 0 0 278.87 48.79
  Q 280.09 49.45 280.25 49.93"
/>
<path stroke="#7f804d" vector-effect="non-scaling-stroke" d="
  M 248.25 58.57
  Q 248.43 59.13 247.82 60.38
  A 0.36 0.36 0.0 0 0 248.41 60.78
  Q 249.94 59.04 251.30 60.73
  A 0.34 0.34 0.0 0 0 251.90 60.54
  Q 251.95 60.12 251.67 59.44
  A 1.18 0.85 65.4 0 1 251.94 58.11
  Q 253.25 57.36 253.19 57.14
  Q 253.06 56.74 251.56 56.89
  A 1.18 0.85 79.3 0 1 250.57 55.96
  Q 250.40 55.24 250.11 54.93
  A 0.34 0.34 0.0 0 0 249.52 55.13
  Q 249.39 57.29 247.13 56.76
  A 0.36 0.36 0.0 0 0 246.87 57.42
  Q 248.10 58.09 248.25 58.57"
/>
<path stroke="#7f804d" vector-effect="non-scaling-stroke" d="
  M 274.54 56.89
  A 0.34 0.34 0.0 0 1 274.20 56.64
  L 273.74 55.01
  A 0.34 0.34 0.0 0 0 273.09 55.00
  L 272.62 56.64
  A 0.34 0.34 0.0 0 1 272.28 56.89
  L 270.58 56.82
  A 0.34 0.34 0.0 0 0 270.38 57.44
  L 271.79 58.39
  A 0.34 0.34 0.0 0 1 271.92 58.79
  L 271.33 60.39
  A 0.34 0.34 0.0 0 0 271.86 60.78
  L 273.20 59.72
  A 0.34 0.34 0.0 0 1 273.62 59.73
  L 274.95 60.78
  A 0.34 0.34 0.0 0 0 275.48 60.40
  L 274.90 58.80
  A 0.34 0.34 0.0 0 1 275.03 58.40
  L 276.45 57.45
  A 0.34 0.34 0.0 0 0 276.25 56.83
  L 274.54 56.89"
/>
<path stroke="#7f804d" vector-effect="non-scaling-stroke" d="
  M 260.09 62.04
  Q 260.27 62.58 259.69 63.79
  A 0.35 0.35 0.0 0 0 260.26 64.17
  Q 261.73 62.48 263.05 64.09
  A 0.33 0.33 0.0 0 0 263.63 63.91
  Q 263.68 63.50 263.41 62.85
  A 1.13 0.82 64.9 0 1 263.65 61.56
  Q 264.91 60.82 264.85 60.62
  Q 264.72 60.23 263.27 60.39
  A 1.13 0.82 78.7 0 1 262.31 59.50
  Q 262.14 58.81 261.86 58.51
  A 0.33 0.33 0.0 0 0 261.28 58.70
  Q 261.18 60.79 258.99 60.30
  A 0.35 0.35 0.0 0 0 258.75 60.94
  Q 259.94 61.58 260.09 62.04"
/>
</g>
<path fill="#003399" d="
  M 315.47 72.77
  A 0.55 0.55 0.0 0 1 314.92 73.32
  L 208.56 73.32
  A 0.55 0.55 0.0 0 1 208.01 72.77
  L 208.01 2.41
  A 0.55 0.55 0.0 0 1 208.56 1.86
  L 314.92 1.86
  A 0.55 0.55 0.0 0 1 315.47 2.41
  L 315.47 72.77
  Z
  M 260.11 14.81
  Q 260.30 15.36 259.71 16.61
  A 0.36 0.36 0.0 0 0 260.30 16.99
  Q 261.80 15.25 263.17 16.90
  A 0.34 0.34 0.0 0 0 263.76 16.71
  Q 263.81 16.29 263.52 15.62
  A 1.17 0.85 64.7 0 1 263.77 14.30
  Q 265.06 13.54 264.99 13.32
  Q 264.86 12.93 263.37 13.10
  A 1.17 0.85 78.5 0 1 262.38 12.18
  Q 262.20 11.48 261.91 11.17
  A 0.34 0.34 0.0 0 0 261.32 11.37
  Q 261.22 13.52 258.98 13.02
  A 0.36 0.36 0.0 0 0 258.73 13.68
  Q 259.95 14.33 260.11 14.81
  Z
  M 248.41 17.98
  Q 248.58 18.54 247.97 19.78
  A 0.36 0.36 0.0 0 0 248.55 20.17
  Q 250.09 18.45 251.42 20.13
  A 0.34 0.34 0.0 0 0 252.02 19.95
  Q 252.08 19.53 251.80 18.85
  A 1.17 0.85 65.7 0 1 252.08 17.53
  Q 253.38 16.79 253.32 16.58
  Q 253.19 16.19 251.70 16.33
  A 1.17 0.85 79.5 0 1 250.72 15.40
  Q 250.55 14.68 250.27 14.37
  A 0.34 0.34 0.0 0 0 249.68 14.56
  Q 249.54 16.71 247.30 16.17
  A 0.36 0.36 0.0 0 0 247.05 16.83
  Q 248.26 17.50 248.41 17.98
  Z
  M 271.80 17.99
  Q 271.98 18.55 271.38 19.80
  A 0.36 0.36 0.0 0 0 271.97 20.19
  Q 273.49 18.44 274.86 20.11
  A 0.34 0.34 0.0 0 0 275.45 19.92
  Q 275.50 19.50 275.22 18.82
  A 1.17 0.85 64.9 0 1 275.48 17.49
  Q 276.78 16.73 276.71 16.52
  Q 276.58 16.12 275.08 16.28
  A 1.17 0.85 78.7 0 1 274.08 15.36
  Q 273.91 14.65 273.62 14.34
  A 0.34 0.34 0.0 0 0 273.02 14.54
  Q 272.92 16.70 270.66 16.19
  A 0.36 0.36 0.0 0 0 270.41 16.85
  Q 271.64 17.51 271.80 17.99
  Z
  M 280.38 26.52
  Q 280.55 27.06 279.97 28.27
  A 0.35 0.35 0.0 0 0 280.54 28.65
  Q 282.02 26.96 283.34 28.59
  A 0.33 0.33 0.0 0 0 283.92 28.41
  Q 283.97 28.00 283.70 27.34
  A 1.14 0.83 65.2 0 1 283.95 26.05
  Q 285.22 25.32 285.16 25.11
  Q 285.03 24.72 283.58 24.87
  A 1.14 0.83 79.0 0 1 282.61 23.97
  Q 282.45 23.28 282.17 22.98
  A 0.33 0.33 0.0 0 0 281.59 23.17
  Q 281.47 25.27 279.28 24.76
  A 0.35 0.35 0.0 0 0 279.04 25.40
  Q 280.23 26.05 280.38 26.52
  Z
  M 239.84 26.51
  Q 240.01 27.04 239.44 28.23
  A 0.34 0.34 0.0 0 0 240.01 28.60
  Q 241.45 26.94 242.75 28.54
  A 0.32 0.32 0.0 0 0 243.32 28.36
  Q 243.37 27.96 243.10 27.31
  A 1.12 0.81 65.1 0 1 243.35 26.05
  Q 244.59 25.33 244.52 25.13
  Q 244.40 24.75 242.97 24.90
  A 1.12 0.81 78.9 0 1 242.03 24.02
  Q 241.86 23.34 241.59 23.04
  A 0.32 0.32 0.0 0 0 241.02 23.23
  Q 240.91 25.29 238.77 24.79
  A 0.34 0.34 0.0 0 0 238.53 25.43
  Q 239.69 26.05 239.84 26.51
  Z
  M 236.68 38.34
  Q 236.86 38.88 236.27 40.10
  A 0.35 0.35 0.0 0 0 236.85 40.48
  Q 238.33 38.78 239.66 40.41
  A 0.33 0.33 0.0 0 0 240.24 40.23
  Q 240.29 39.82 240.01 39.15
  A 1.14 0.83 65.0 0 1 240.27 37.86
  Q 241.54 37.12 241.47 36.91
  Q 241.34 36.53 239.88 36.68
  A 1.14 0.83 78.9 0 1 238.91 35.78
  Q 238.75 35.09 238.46 34.78
  A 0.33 0.33 0.0 0 0 237.89 34.98
  Q 237.77 37.08 235.58 36.58
  A 0.35 0.35 0.0 0 0 235.34 37.23
  Q 236.53 37.87 236.68 38.34
  Z
  M 283.52 38.29
  Q 283.69 38.83 283.10 40.05
  A 0.35 0.35 0.0 0 0 283.67 40.43
  Q 285.16 38.74 286.48 40.37
  A 0.33 0.33 0.0 0 0 287.06 40.20
  Q 287.11 39.79 286.84 39.12
  A 1.14 0.83 65.3 0 1 287.10 37.83
  Q 288.37 37.10 288.30 36.89
  Q 288.18 36.51 286.72 36.65
  A 1.14 0.83 79.1 0 1 285.76 35.75
  Q 285.59 35.06 285.31 34.75
  A 0.33 0.33 0.0 0 0 284.74 34.94
  Q 284.61 37.04 282.42 36.53
  A 0.35 0.35 0.0 0 0 282.18 37.17
  Q 283.36 37.82 283.52 38.29
  Z
  M 242.62 48.21
  A 0.30 0.30 0.0 0 1 242.33 48.00
  L 241.77 46.32
  A 0.30 0.30 0.0 0 0 241.21 46.32
  L 240.65 48.00
  A 0.30 0.30 0.0 0 1 240.36 48.21
  L 238.60 48.22
  A 0.30 0.30 0.0 0 0 238.42 48.76
  L 239.84 49.81
  A 0.30 0.30 0.0 0 1 239.95 50.14
  L 239.42 51.83
  A 0.30 0.30 0.0 0 0 239.88 52.16
  L 241.32 51.13
  A 0.30 0.30 0.0 0 1 241.66 51.13
  L 243.10 52.16
  A 0.30 0.30 0.0 0 0 243.56 51.83
  L 243.03 50.14
  A 0.30 0.30 0.0 0 1 243.14 49.81
  L 244.56 48.76
  A 0.30 0.30 0.0 0 0 244.38 48.22
  L 242.62 48.21
  Z
  M 280.25 49.93
  Q 280.44 50.49 279.84 51.75
  A 0.36 0.36 0.0 0 0 280.43 52.13
  Q 281.95 50.38 283.32 52.06
  A 0.34 0.34 0.0 0 0 283.92 51.87
  Q 283.97 51.44 283.69 50.76
  A 1.18 0.85 64.9 0 1 283.94 49.43
  Q 285.25 48.67 285.18 48.45
  Q 285.05 48.06 283.55 48.22
  A 1.18 0.85 78.7 0 1 282.55 47.30
  Q 282.37 46.58 282.08 46.27
  A 0.34 0.34 0.0 0 0 281.49 46.47
  Q 281.38 48.63 279.11 48.13
  A 0.36 0.36 0.0 0 0 278.87 48.79
  Q 280.09 49.45 280.25 49.93
  Z
  M 248.25 58.57
  Q 248.43 59.13 247.82 60.38
  A 0.36 0.36 0.0 0 0 248.41 60.78
  Q 249.94 59.04 251.30 60.73
  A 0.34 0.34 0.0 0 0 251.90 60.54
  Q 251.95 60.12 251.67 59.44
  A 1.18 0.85 65.4 0 1 251.94 58.11
  Q 253.25 57.36 253.19 57.14
  Q 253.06 56.74 251.56 56.89
  A 1.18 0.85 79.3 0 1 250.57 55.96
  Q 250.40 55.24 250.11 54.93
  A 0.34 0.34 0.0 0 0 249.52 55.13
  Q 249.39 57.29 247.13 56.76
  A 0.36 0.36 0.0 0 0 246.87 57.42
  Q 248.10 58.09 248.25 58.57
  Z
  M 274.54 56.89
  A 0.34 0.34 0.0 0 1 274.20 56.64
  L 273.74 55.01
  A 0.34 0.34 0.0 0 0 273.09 55.00
  L 272.62 56.64
  A 0.34 0.34 0.0 0 1 272.28 56.89
  L 270.58 56.82
  A 0.34 0.34 0.0 0 0 270.38 57.44
  L 271.79 58.39
  A 0.34 0.34 0.0 0 1 271.92 58.79
  L 271.33 60.39
  A 0.34 0.34 0.0 0 0 271.86 60.78
  L 273.20 59.72
  A 0.34 0.34 0.0 0 1 273.62 59.73
  L 274.95 60.78
  A 0.34 0.34 0.0 0 0 275.48 60.40
  L 274.90 58.80
  A 0.34 0.34 0.0 0 1 275.03 58.40
  L 276.45 57.45
  A 0.34 0.34 0.0 0 0 276.25 56.83
  L 274.54 56.89
  Z
  M 260.09 62.04
  Q 260.27 62.58 259.69 63.79
  A 0.35 0.35 0.0 0 0 260.26 64.17
  Q 261.73 62.48 263.05 64.09
  A 0.33 0.33 0.0 0 0 263.63 63.91
  Q 263.68 63.50 263.41 62.85
  A 1.13 0.82 64.9 0 1 263.65 61.56
  Q 264.91 60.82 264.85 60.62
  Q 264.72 60.23 263.27 60.39
  A 1.13 0.82 78.7 0 1 262.31 59.50
  Q 262.14 58.81 261.86 58.51
  A 0.33 0.33 0.0 0 0 261.28 58.70
  Q 261.18 60.79 258.99 60.30
  A 0.35 0.35 0.0 0 0 258.75 60.94
  Q 259.94 61.58 260.09 62.04
  Z"
/>
<path fill="#000000" d="
  M 40.37 5.64
  A 0.62 0.62 0.0 0 1 40.16 6.85
  L 38.32 6.85
  A 1.42 1.41 -80.5 0 0 36.98 7.81
  L 36.52 9.16
  A 0.74 0.74 0.0 0 0 37.22 10.14
  L 39.73 10.14
  A 0.56 0.56 0.0 0 1 40.29 10.70
  L 40.29 11.08
  A 0.43 0.43 0.0 0 1 39.86 11.51
  L 37.17 11.51
  A 0.54 0.54 0.0 0 0 36.63 12.05
  L 36.63 19.08
  A 0.59 0.58 2.7 0 1 35.99 19.66
  L 35.43 19.62
  A 0.64 0.63 2.9 0 1 34.84 18.98
  Q 34.84 18.91 34.92 8.82
  C 34.94 5.82 37.55 4.63 40.37 5.64
  Z"
/>
<circle fill="#000000" cx="43.19" cy="7.22" r="1.11"/>
<path fill="#000000" d="
  M 31.80 8.04
  L 31.79 8.12
  A 0.63 0.62 11.8 0 1 30.97 8.65
  Q 27.65 7.52 26.50 8.89
  A 2.02 1.79 28.4 0 0 27.58 11.85
  Q 30.26 12.78 31.72 14.11
  A 2.04 1.95 14.8 0 1 32.31 15.07
  C 33.66 20.31 27.86 20.32 24.49 19.42
  A 0.84 0.83 -82.9 0 1 23.87 18.61
  L 23.87 18.17
  A 0.51 0.51 0.0 0 1 24.54 17.68
  C 26.21 18.26 29.93 19.41 30.58 16.90
  A 1.96 1.94 -71.7 0 0 29.43 14.60
  C 27.82 13.95 24.65 13.35 24.21 11.18
  C 23.31 6.78 27.93 6.30 31.06 7.02
  A 0.96 0.96 0.0 0 1 31.80 8.04
  Z"
/>
<path fill="#000000" d="
  M 111.97 11.22
  A 0.56 0.56 0.0 0 1 111.30 10.67
  L 111.30 10.37
  A 0.49 0.49 0.0 0 1 111.66 9.90
  Q 113.84 9.29 116.35 10.31
  A 2.63 2.63 0.0 0 1 117.98 12.74
  L 117.98 18.96
  A 0.69 0.68 -2.8 0 1 117.36 19.64
  C 115.15 19.84 110.44 20.59 110.49 16.99
  C 110.54 14.14 112.71 13.90 114.95 13.93
  A 1.24 1.24 0.0 0 0 115.46 11.55
  Q 113.84 10.86 111.97 11.22
  Z
  M 116.16 17.84
  L 116.14 16.04
  A 0.68 0.68 0.0 0 0 115.45 15.37
  L 113.85 15.39
  A 1.70 1.41 -0.8 0 0 112.17 16.83
  L 112.17 17.17
  A 1.70 1.41 -0.8 0 0 113.89 18.55
  L 115.49 18.53
  A 0.68 0.68 0.0 0 0 116.16 17.84
  Z"
/>
<path fill="#000000" d="
  M 54.10 19.79
  L 53.73 19.79
  A 0.64 0.64 0.0 0 1 53.10 19.15
  L 53.12 13.32
  A 1.90 1.90 0.0 0 0 51.23 11.41
  L 49.78 11.41
  A 1.17 1.17 0.0 0 0 48.60 12.58
  L 48.63 18.88
  A 0.76 0.76 0.0 0 1 47.86 19.65
  L 47.79 19.65
  A 0.85 0.84 -89.1 0 1 46.99 18.82
  L 46.95 11.97
  A 2.02 2.02 0.0 0 1 48.97 9.94
  L 51.85 9.96
  A 2.93 2.93 0.0 0 1 54.77 12.90
  L 54.75 19.15
  A 0.65 0.65 0.0 0 1 54.10 19.79
  Z"
/>
<path fill="#000000" d="
  M 58.34 11.22
  A 0.56 0.56 0.0 0 1 57.67 10.67
  L 57.67 10.37
  A 0.49 0.49 0.0 0 1 58.03 9.90
  Q 60.22 9.30 62.72 10.34
  A 2.63 2.63 0.0 0 1 64.34 12.78
  L 64.30 19.00
  A 0.69 0.68 -2.4 0 1 63.67 19.67
  C 61.46 19.86 56.75 20.58 56.82 16.98
  C 56.89 14.13 59.06 13.91 61.30 13.95
  A 1.24 1.24 0.0 0 0 61.82 11.57
  Q 60.21 10.87 58.34 11.22
  Z
  M 62.64 17.93
  L 62.59 15.91
  A 0.58 0.58 0.0 0 0 62.00 15.35
  L 60.38 15.39
  A 1.82 1.42 -1.4 0 0 58.60 16.85
  L 58.60 17.19
  A 1.82 1.42 -1.4 0 0 60.46 18.56
  L 62.08 18.52
  A 0.58 0.58 0.0 0 0 62.64 17.93
  Z"
/>
<path fill="#000000" d="
  M 74.35 19.84
  L 73.98 19.84
  A 0.64 0.64 0.0 0 1 73.34 19.20
  L 73.34 13.33
  A 1.91 1.91 0.0 0 0 71.43 11.42
  L 69.97 11.42
  A 1.18 1.18 0.0 0 0 68.79 12.61
  L 68.84 18.95
  A 0.77 0.77 0.0 0 1 68.07 19.73
  L 68.00 19.73
  A 0.85 0.84 -89.3 0 1 67.19 18.89
  L 67.12 12.00
  A 2.03 2.03 0.0 0 1 69.15 9.95
  L 72.05 9.95
  A 2.95 2.95 0.0 0 1 75.00 12.90
  L 75.00 19.19
  A 0.65 0.65 0.0 0 1 74.35 19.84
  Z"
/>
<path fill="#000000" d="
  M 76.99 18.76
  L 77.00 18.39
  A 0.43 0.43 0.0 0 1 77.60 18.00
  Q 79.57 18.82 81.37 18.27
  A 1.08 1.08 0.0 0 0 81.58 16.29
  C 80.33 15.60 77.24 15.01 77.20 12.57
  C 77.16 9.85 80.85 9.57 82.80 10.12
  A 0.69 0.69 0.0 0 1 83.27 10.97
  L 83.23 11.10
  A 0.69 0.69 0.0 0 1 82.39 11.57
  Q 81.14 11.23 79.77 11.48
  A 1.04 1.01 82.9 0 0 78.94 12.58
  Q 79.01 13.43 79.65 13.70
  C 80.92 14.22 82.87 14.69 83.50 15.90
  C 84.15 17.14 83.95 19.04 82.33 19.59
  Q 80.01 20.37 77.76 19.77
  A 1.03 1.02 7.8 0 1 76.99 18.76
  Z"
/>
<path fill="#000000" d="
  M 127.91 19.82
  L 127.54 19.82
  A 0.64 0.64 0.0 0 1 126.90 19.19
  L 126.90 13.33
  A 1.91 1.91 0.0 0 0 124.99 11.42
  L 123.54 11.42
  A 1.18 1.18 0.0 0 0 122.36 12.61
  L 122.41 18.93
  A 0.77 0.77 0.0 0 1 121.64 19.71
  L 121.57 19.71
  A 0.85 0.84 -89.3 0 1 120.76 18.87
  L 120.69 12.00
  A 2.03 2.03 0.0 0 1 122.72 9.95
  L 125.61 9.95
  A 2.95 2.95 0.0 0 1 128.56 12.90
  L 128.56 19.18
  A 0.65 0.65 0.0 0 1 127.91 19.82
  Z"
/>
<path fill="#000000" d="
  M 138.02 11.17
  L 139.20 13.17
  A 1.41 1.40 -15.6 0 1 138.00 15.29
  L 133.24 15.33
  A 0.66 0.66 0.0 0 0 132.65 16.28
  Q 134.11 19.25 137.65 18.10
  A 0.62 0.62 0.0 0 1 138.43 18.49
  L 138.48 18.65
  A 0.55 0.55 0.0 0 1 138.12 19.36
  C 129.01 21.90 128.42 9.92 135.74 9.88
  A 2.64 2.62 -15.1 0 1 138.02 11.17
  Z
  M 133.14 14.02
  L 137.27 13.94
  A 0.24 0.24 0.0 0 0 137.51 13.70
  L 137.51 13.56
  A 2.20 2.18 88.9 0 0 135.29 11.40
  L 135.03 11.40
  A 2.20 2.18 88.9 0 0 132.89 13.64
  L 132.89 13.78
  A 0.24 0.24 0.0 0 0 133.14 14.02
  Z"
/>
<path fill="#000000" d="
  M 148.56 19.66
  A 0.57 0.56 6.9 0 0 147.86 20.21
  L 147.85 22.56
  A 0.57 0.57 0.0 0 1 147.28 23.12
  L 146.92 23.12
  A 0.68 0.67 -89.9 0 1 146.26 22.44
  L 146.27 10.89
  A 0.72 0.72 0.0 0 1 146.83 10.19
  C 151.51 9.09 155.66 10.82 154.49 16.24
  Q 153.48 20.85 148.56 19.66
  Z
  M 147.87 12.17
  L 147.85 17.63
  A 0.76 0.76 0.0 0 0 148.60 18.39
  L 149.79 18.40
  A 2.93 2.91 -89.7 0 0 152.72 15.48
  L 152.72 14.36
  A 2.93 2.91 -89.7 0 0 149.83 11.42
  L 148.64 11.41
  A 0.76 0.76 0.0 0 0 147.87 12.17
  Z"
/>
<path fill="#000000" d="
  M 162.46 10.53
  L 162.46 10.89
  A 0.42 0.42 0.0 0 1 162.04 11.31
  L 159.53 11.32
  A 0.64 0.63 89.9 0 0 158.90 11.96
  L 158.91 19.12
  A 0.58 0.58 0.0 0 1 158.32 19.70
  L 158.00 19.70
  A 0.79 0.79 0.0 0 1 157.21 18.92
  L 157.20 10.84
  A 0.79 0.79 0.0 0 1 157.80 10.08
  Q 159.95 9.53 162.04 9.99
  A 0.55 0.55 0.0 0 1 162.46 10.53
  Z"
/>
<path fill="#000000" d="
  M 179.94 15.31
  L 175.17 15.31
  A 0.66 0.66 0.0 0 0 174.57 16.25
  Q 176.01 19.24 179.56 18.12
  A 0.62 0.62 0.0 0 1 180.34 18.52
  L 180.39 18.68
  A 0.55 0.55 0.0 0 1 180.02 19.39
  C 170.88 21.84 170.40 9.84 177.73 9.87
  A 2.64 2.62 -14.6 0 1 180.00 11.19
  L 181.16 13.20
  A 1.41 1.41 0.0 0 1 179.94 15.31
  Z
  M 174.96 14.01
  L 179.09 13.93
  A 0.22 0.22 0.0 0 0 179.31 13.71
  L 179.31 13.58
  A 2.23 2.21 88.9 0 0 177.06 11.39
  L 176.90 11.39
  A 2.23 2.21 88.9 0 0 174.73 13.66
  L 174.73 13.79
  A 0.22 0.22 0.0 0 0 174.96 14.01
  Z"
/>
<rect fill="#000000" x="-0.81" y="-4.91" transform="translate(43.18,14.95) rotate(0.1)" width="1.62" height="9.82" rx="0.66"/>
<path fill="#000000" d="
  M 89.8282 9.8225
  A 5.15 4.63 -91.8 0 1 94.6177 14.8246
  A 5.15 4.63 -91.8 0 1 90.1518 20.1175
  A 5.15 4.63 -91.8 0 1 85.3623 15.1154
  A 5.15 4.63 -91.8 0 1 89.8282 9.8225
  Z
  M 90.0150 11.3801
  A 3.58 2.83 -89.6 0 0 87.1601 14.9402
  A 3.58 2.83 -89.6 0 0 89.9650 18.5399
  A 3.58 2.83 -89.6 0 0 92.8199 14.9798
  A 3.58 2.83 -89.6 0 0 90.0150 11.3801
  Z"
/>
<path fill="#000000" d="
  M 102.40 10.10
  C 102.90 10.09 103.19 10.31 103.30 10.79
  Q 104.17 14.49 105.09 16.74
  A 0.17 0.17 0.0 0 0 105.41 16.73
  L 107.60 10.33
  A 0.49 0.49 0.0 0 1 108.22 10.03
  L 108.53 10.13
  A 0.87 0.86 -71.1 0 1 109.06 11.22
  L 106.33 19.19
  A 1.01 1.00 -44.8 0 1 104.42 19.19
  Q 102.62 13.77 102.44 13.78
  Q 102.25 13.78 100.54 19.22
  A 1.01 1.00 43.8 0 1 98.64 19.26
  L 95.77 11.34
  A 0.87 0.86 70.1 0 1 96.28 10.24
  L 96.59 10.13
  A 0.49 0.49 0.0 0 1 97.21 10.42
  L 99.51 16.78
  A 0.17 0.17 0.0 0 0 99.83 16.79
  Q 100.71 14.52 101.52 10.81
  C 101.62 10.33 101.91 10.10 102.40 10.10
  Z"
/>
<path fill="#000000" d="
  M 166.67 18.38
  L 170.91 18.38
  A 0.49 0.49 0.0 0 1 171.40 18.87
  L 171.40 19.18
  A 0.56 0.56 0.0 0 1 170.84 19.74
  L 164.67 19.74
  A 0.89 0.89 0.0 0 1 163.96 18.32
  L 168.61 12.13
  A 0.32 0.32 0.0 0 0 168.35 11.62
  L 164.91 11.62
  A 0.75 0.75 0.0 0 1 164.16 10.87
  L 164.16 10.55
  A 0.43 0.43 0.0 0 1 164.59 10.12
  L 170.40 10.12
  A 0.76 0.76 0.0 0 1 171.01 11.34
  L 166.29 17.63
  A 0.47 0.47 0.0 0 0 166.67 18.38
  Z"
/>
<path fill="#000000" d="
  M 185.14 17.64
  A 0.47 0.47 0.0 0 0 185.52 18.39
  L 189.77 18.39
  A 0.49 0.49 0.0 0 1 190.26 18.88
  L 190.26 19.19
  A 0.56 0.56 0.0 0 1 189.70 19.75
  L 183.52 19.75
  A 0.89 0.89 0.0 0 1 182.81 18.33
  L 187.47 12.13
  A 0.32 0.32 0.0 0 0 187.21 11.62
  L 183.77 11.62
  A 0.75 0.75 0.0 0 1 183.02 10.87
  L 183.02 10.55
  A 0.43 0.43 0.0 0 1 183.45 10.12
  L 189.26 10.12
  A 0.76 0.76 0.0 0 1 189.87 11.34
  L 185.14 17.64
  Z"
/>
<path fill="#fecc01" d="
  M 260.11 14.81
  Q 259.95 14.33 258.73 13.68
  A 0.36 0.36 0.0 0 1 258.98 13.02
  Q 261.22 13.52 261.32 11.37
  A 0.34 0.34 0.0 0 1 261.91 11.17
  Q 262.20 11.48 262.38 12.18
  A 1.17 0.85 78.5 0 0 263.37 13.10
  Q 264.86 12.93 264.99 13.32
  Q 265.06 13.54 263.77 14.30
  A 1.17 0.85 64.7 0 0 263.52 15.62
  Q 263.81 16.29 263.76 16.71
  A 0.34 0.34 0.0 0 1 263.17 16.90
  Q 261.80 15.25 260.30 16.99
  A 0.36 0.36 0.0 0 1 259.71 16.61
  Q 260.30 15.36 260.11 14.81
  Z"
/>
<path fill="#fecc01" d="
  M 248.41 17.98
  Q 248.26 17.50 247.05 16.83
  A 0.36 0.36 0.0 0 1 247.30 16.17
  Q 249.54 16.71 249.68 14.56
  A 0.34 0.34 0.0 0 1 250.27 14.37
  Q 250.55 14.68 250.72 15.40
  A 1.17 0.85 79.5 0 0 251.70 16.33
  Q 253.19 16.19 253.32 16.58
  Q 253.38 16.79 252.08 17.53
  A 1.17 0.85 65.7 0 0 251.80 18.85
  Q 252.08 19.53 252.02 19.95
  A 0.34 0.34 0.0 0 1 251.42 20.13
  Q 250.09 18.45 248.55 20.17
  A 0.36 0.36 0.0 0 1 247.97 19.78
  Q 248.58 18.54 248.41 17.98
  Z"
/>
<path fill="#fecc01" d="
  M 271.80 17.99
  Q 271.64 17.51 270.41 16.85
  A 0.36 0.36 0.0 0 1 270.66 16.19
  Q 272.92 16.70 273.02 14.54
  A 0.34 0.34 0.0 0 1 273.62 14.34
  Q 273.91 14.65 274.08 15.36
  A 1.17 0.85 78.7 0 0 275.08 16.28
  Q 276.58 16.12 276.71 16.52
  Q 276.78 16.73 275.48 17.49
  A 1.17 0.85 64.9 0 0 275.22 18.82
  Q 275.50 19.50 275.45 19.92
  A 0.34 0.34 0.0 0 1 274.86 20.11
  Q 273.49 18.44 271.97 20.19
  A 0.36 0.36 0.0 0 1 271.38 19.80
  Q 271.98 18.55 271.80 17.99
  Z"
/>
<path fill="#fecc01" d="
  M 285.16 25.11
  Q 285.22 25.32 283.95 26.05
  A 1.14 0.83 65.2 0 0 283.70 27.34
  Q 283.97 28.00 283.92 28.41
  A 0.33 0.33 0.0 0 1 283.34 28.59
  Q 282.02 26.96 280.54 28.65
  A 0.35 0.35 0.0 0 1 279.97 28.27
  Q 280.55 27.06 280.38 26.52
  Q 280.23 26.05 279.04 25.40
  A 0.35 0.35 0.0 0 1 279.28 24.76
  Q 281.47 25.27 281.59 23.17
  A 0.33 0.33 0.0 0 1 282.17 22.98
  Q 282.45 23.28 282.61 23.97
  A 1.14 0.83 79.0 0 0 283.58 24.87
  Q 285.03 24.72 285.16 25.11
  Z"
/>
<path fill="#fecc01" d="
  M 239.84 26.51
  Q 239.69 26.05 238.53 25.43
  A 0.34 0.34 0.0 0 1 238.77 24.79
  Q 240.91 25.29 241.02 23.23
  A 0.32 0.32 0.0 0 1 241.59 23.04
  Q 241.86 23.34 242.03 24.02
  A 1.12 0.81 78.9 0 0 242.97 24.90
  Q 244.40 24.75 244.52 25.13
  Q 244.59 25.33 243.35 26.05
  A 1.12 0.81 65.1 0 0 243.10 27.31
  Q 243.37 27.96 243.32 28.36
  A 0.32 0.32 0.0 0 1 242.75 28.54
  Q 241.45 26.94 240.01 28.60
  A 0.34 0.34 0.0 0 1 239.44 28.23
  Q 240.01 27.04 239.84 26.51
  Z"
/>
<path fill="#000000" d="
  M 174.95 43.73
  L 173.81 43.73
  A 0.31 0.31 0.0 0 1 173.50 43.42
  L 173.50 29.90
  A 0.31 0.31 0.0 0 1 173.81 29.59
  L 174.92 29.59
  A 0.31 0.31 0.0 0 1 175.23 29.90
  L 175.23 37.32
  A 0.31 0.31 0.0 0 0 175.76 37.54
  L 179.16 34.14
  A 0.31 0.31 0.0 0 1 179.38 34.05
  L 180.49 34.05
  A 0.31 0.31 0.0 0 1 180.71 34.58
  L 177.33 37.96
  A 0.31 0.31 0.0 0 0 177.31 38.37
  L 180.95 43.12
  A 0.31 0.31 0.0 0 1 180.85 43.58
  L 179.98 44.08
  A 0.31 0.31 0.0 0 1 179.57 44.00
  L 175.82 39.09
  A 0.31 0.31 0.0 0 0 175.26 39.28
  L 175.26 43.42
  A 0.31 0.31 0.0 0 1 174.95 43.73
  Z"
/>
<ellipse fill="#000000" cx="0.00" cy="0.00" transform="translate(80.45,31.03) rotate(-86.7)" rx="1.18" ry="1.04"/>
<path fill="#000000" d="
  M 161.96 30.52
  Q 162.30 31.24 161.93 31.71
  A 1.09 0.92 -35.9 0 1 160.11 31.57
  Q 159.90 30.67 160.27 30.19
  A 1.07 0.96 52.9 0 1 161.96 30.52
  Z"
/>
<path fill="#000000" d="
  M 61.27 43.84
  C 57.51 43.83 56.32 41.22 56.46 37.63
  Q 56.51 36.42 56.47 31.22
  A 0.63 0.63 0.0 0 1 57.10 30.59
  L 57.67 30.59
  A 0.62 0.62 0.0 0 1 58.29 31.22
  C 58.17 35.47 57.08 42.15 61.27 42.16
  C 65.47 42.18 64.42 35.49 64.33 31.24
  A 0.62 0.62 0.0 0 1 64.95 30.61
  L 65.52 30.62
  A 0.63 0.63 0.0 0 1 66.15 31.25
  Q 66.08 36.45 66.11 37.66
  C 66.23 41.25 65.03 43.85 61.27 43.84
  Z"
/>
<path fill="#000000" d="
  M 107.84 31.19
  L 107.84 32.07
  A 0.31 0.31 0.0 0 1 107.53 32.38
  L 102.05 32.38
  A 0.31 0.31 0.0 0 0 101.74 32.69
  L 101.74 35.81
  A 0.31 0.31 0.0 0 0 102.05 36.12
  L 106.80 36.12
  A 0.31 0.31 0.0 0 1 107.11 36.43
  L 107.11 37.43
  A 0.31 0.31 0.0 0 1 106.80 37.74
  L 102.07 37.74
  A 0.31 0.31 0.0 0 0 101.76 38.05
  L 101.76 41.82
  A 0.31 0.31 0.0 0 0 102.07 42.13
  L 107.93 42.13
  A 0.31 0.31 0.0 0 1 108.24 42.44
  L 108.24 43.31
  A 0.31 0.31 0.0 0 1 107.93 43.62
  L 100.31 43.62
  A 0.31 0.31 0.0 0 1 100.00 43.31
  L 100.00 31.19
  A 0.31 0.31 0.0 0 1 100.31 30.88
  L 107.53 30.88
  A 0.31 0.31 0.0 0 1 107.84 31.19
  Z"
/>
<path fill="#000000" d="
  M 187.75 44.17
  A 0.45 0.45 0.0 0 0 187.29 43.57
  Q 183.50 43.85 182.93 41.38
  A 2.98 2.97 74.5 0 1 184.90 37.88
  Q 186.08 37.49 187.55 37.68
  A 0.87 0.87 0.0 0 0 188.50 36.62
  L 188.37 36.16
  A 1.72 1.72 0.0 0 0 186.71 34.90
  L 184.25 34.90
  A 0.46 0.46 0.0 0 1 183.79 34.44
  L 183.79 34.06
  A 0.52 0.51 -3.8 0 1 184.24 33.55
  C 191.38 32.68 190.20 38.15 190.12 42.97
  A 1.18 1.12 69.2 0 1 189.79 43.76
  L 188.65 44.90
  A 0.51 0.51 0.0 0 0 188.96 45.77
  Q 189.82 45.85 189.98 46.06
  A 0.58 0.57 67.4 0 1 189.60 46.99
  Q 187.66 47.21 187.07 46.06
  Q 186.78 45.49 187.16 45.01
  Q 187.69 44.34 187.75 44.17
  Z
  M 188.44 41.79
  L 188.31 39.75
  A 0.58 0.58 0.0 0 0 187.69 39.21
  L 186.37 39.30
  A 2.09 1.42 -3.7 0 0 184.37 40.85
  L 184.40 41.21
  A 2.09 1.42 -3.7 0 0 186.57 42.49
  L 187.90 42.41
  A 0.58 0.58 0.0 0 0 188.44 41.79
  Z"
/>
<path fill="#000000" d="
  M 76.28 43.68
  L 75.91 43.68
  A 0.64 0.64 0.0 0 1 75.27 43.04
  L 75.28 37.18
  A 1.91 1.91 0.0 0 0 73.37 35.27
  L 71.91 35.27
  A 1.18 1.18 0.0 0 0 70.73 36.46
  L 70.78 42.79
  A 0.77 0.77 0.0 0 1 70.01 43.57
  L 69.94 43.57
  A 0.85 0.84 -89.3 0 1 69.13 42.73
  L 69.07 35.85
  A 2.03 2.03 0.0 0 1 71.10 33.81
  L 73.99 33.81
  A 2.95 2.95 0.0 0 1 76.94 36.76
  L 76.93 43.04
  A 0.65 0.65 0.0 0 1 76.28 43.68
  Z"
/>
<path fill="#000000" d="
  M 88.38 43.57
  C 82.64 43.77 82.26 35.93 86.54 34.05
  A 3.38 3.27 30.0 0 1 87.70 33.76
  Q 91.92 33.47 92.17 38.39
  A 0.83 0.83 0.0 0 1 91.34 39.27
  L 86.11 39.27
  A 0.65 0.65 0.0 0 0 85.59 40.31
  L 86.38 41.33
  A 2.12 2.10 -18.4 0 0 88.06 42.16
  L 90.71 42.16
  A 0.69 0.69 0.0 0 1 91.20 43.34
  L 89.81 44.73
  A 0.56 0.55 34.2 0 0 89.99 45.63
  Q 90.39 45.80 90.84 45.80
  A 0.58 0.52 -52.6 0 1 90.93 46.88
  Q 90.30 47.12 88.98 46.81
  A 1.22 1.19 24.2 0 1 88.25 44.95
  Q 88.65 44.39 88.77 44.11
  A 0.40 0.40 0.0 0 0 88.38 43.57
  Z
  M 86.14 37.86
  L 90.10 37.84
  A 0.30 0.30 0.0 0 0 90.40 37.53
  L 90.40 37.32
  A 2.18 2.13 -0.4 0 0 88.20 35.21
  L 88.00 35.21
  A 2.18 2.13 -0.4 0 0 85.84 37.36
  L 85.84 37.57
  A 0.30 0.30 0.0 0 0 86.14 37.86
  Z"
/>
<path fill="#000000" d="
  M 125.73 35.22
  L 123.24 35.22
  A 0.64 0.63 90.0 0 0 122.61 35.86
  L 122.61 42.97
  A 0.58 0.58 0.0 0 1 122.03 43.55
  L 121.71 43.55
  A 0.78 0.78 0.0 0 1 120.93 42.77
  L 120.93 34.75
  A 0.78 0.78 0.0 0 1 121.52 33.99
  Q 123.66 33.45 125.73 33.91
  A 0.55 0.54 6.7 0 1 126.15 34.44
  L 126.15 34.80
  A 0.42 0.42 0.0 0 1 125.73 35.22
  Z"
/>
<path fill="#000000" d="
  M 131.9468 33.6701
  A 5.12 4.61 -89.7 0 1 136.5299 38.8141
  A 5.12 4.61 -89.7 0 1 131.8932 43.9099
  A 5.12 4.61 -89.7 0 1 127.3101 38.7659
  A 5.12 4.61 -89.7 0 1 131.9468 33.6701
  Z
  M 131.7583 35.2209
  A 3.60 2.81 -91.3 0 0 129.0307 38.8838
  A 3.60 2.81 -91.3 0 0 131.9217 42.4191
  A 3.60 2.81 -91.3 0 0 134.6493 38.7562
  A 3.60 2.81 -91.3 0 0 131.7583 35.2209
  Z"
/>
<path fill="#000000" d="
  M 140.72 44.14
  L 140.72 46.49
  A 0.57 0.57 0.0 0 1 140.15 47.06
  L 139.79 47.06
  A 0.68 0.67 -90.0 0 1 139.12 46.38
  L 139.12 34.80
  A 0.72 0.72 0.0 0 1 139.68 34.10
  C 144.37 32.99 148.53 34.72 147.36 40.15
  Q 146.36 44.77 141.42 43.59
  A 0.57 0.57 0.0 0 0 140.72 44.14
  Z
  M 140.70 36.49
  L 140.76 41.23
  A 1.11 1.11 0.0 0 0 141.88 42.33
  L 143.02 42.31
  A 3.04 2.67 89.3 0 0 145.66 39.24
  L 145.64 38.36
  A 3.04 2.67 89.3 0 0 142.94 35.35
  L 141.80 35.37
  A 1.11 1.11 0.0 0 0 140.70 36.49
  Z"
/>
<path fill="#000000" d="
  M 156.50 35.08
  L 157.68 37.09
  A 1.41 1.41 0.0 0 1 156.46 39.22
  L 151.68 39.24
  A 0.66 0.66 0.0 0 0 151.08 40.19
  Q 152.54 43.18 156.10 42.04
  A 0.62 0.62 0.0 0 1 156.88 42.44
  L 156.94 42.60
  A 0.55 0.55 0.0 0 1 156.57 43.31
  C 147.41 45.82 146.86 33.78 154.21 33.77
  A 2.65 2.63 -14.9 0 1 156.50 35.08
  Z
  M 151.53 37.84
  L 155.51 37.86
  A 0.28 0.28 0.0 0 0 155.79 37.59
  L 155.79 37.39
  A 2.20 2.14 0.4 0 0 153.61 35.23
  L 153.47 35.23
  A 2.20 2.14 0.4 0 0 151.25 37.35
  L 151.25 37.55
  A 0.28 0.28 0.0 0 0 151.53 37.84
  Z"
/>
<path fill="#000000" d="
  M 164.96 41.96
  Q 166.94 42.75 168.72 42.17
  A 1.08 1.08 0.0 0 0 168.89 40.20
  C 167.64 39.53 164.56 39.00 164.48 36.57
  C 164.39 33.86 168.06 33.53 170.01 34.04
  A 0.68 0.68 0.0 0 1 170.49 34.88
  L 170.45 35.01
  A 0.68 0.68 0.0 0 1 169.62 35.49
  Q 168.37 35.17 167.02 35.44
  A 1.03 1.00 82.0 0 0 166.21 36.55
  Q 166.29 37.40 166.93 37.65
  C 168.20 38.15 170.15 38.59 170.80 39.78
  C 171.46 41.00 171.30 42.89 169.69 43.47
  Q 167.40 44.28 165.15 43.72
  A 1.02 1.02 0.0 0 1 164.37 42.73
  L 164.37 42.36
  A 0.43 0.43 0.0 0 1 164.96 41.96
  Z"
/>
<rect fill="#000000" x="-0.88" y="-4.75" transform="translate(80.50,38.88) rotate(0.1)" width="1.76" height="9.50" rx="0.45"/>
<path fill="#000000" d="
  M 110.64 33.98
  L 111.01 33.98
  A 0.63 0.63 0.0 0 1 111.65 34.62
  L 111.66 40.43
  A 1.89 1.89 0.0 0 0 113.55 42.32
  L 115.00 42.31
  A 1.17 1.17 0.0 0 0 116.16 41.13
  L 116.10 34.86
  A 0.76 0.76 0.0 0 1 116.86 34.08
  L 116.93 34.08
  A 0.84 0.83 -89.4 0 1 117.74 34.91
  L 117.82 41.74
  A 2.01 2.01 0.0 0 1 115.81 43.77
  L 112.94 43.77
  A 2.92 2.92 0.0 0 1 110.01 40.86
  L 110.00 34.63
  A 0.64 0.64 0.0 0 1 110.64 33.98
  Z"
/>
<path fill="#000000" d="
  M 161.85 34.60
  Q 161.93 38.61 161.86 43.81
  C 161.83 46.30 160.45 47.45 158.11 47.16
  A 0.79 0.78 -83.4 0 1 157.43 46.29
  L 157.43 46.25
  A 0.75 0.75 0.0 0 1 158.28 45.59
  Q 160.19 45.84 160.24 43.50
  Q 160.27 41.70 160.25 34.58
  A 0.54 0.53 -0.0 0 1 160.79 34.05
  L 161.28 34.05
  A 0.57 0.57 0.0 0 1 161.85 34.60
  Z"
/>
<path fill="#fecc01" d="
  M 236.68 38.34
  Q 236.53 37.87 235.34 37.23
  A 0.35 0.35 0.0 0 1 235.58 36.58
  Q 237.77 37.08 237.89 34.98
  A 0.33 0.33 0.0 0 1 238.46 34.78
  Q 238.75 35.09 238.91 35.78
  A 1.14 0.83 78.9 0 0 239.88 36.68
  Q 241.34 36.53 241.47 36.91
  Q 241.54 37.12 240.27 37.86
  A 1.14 0.83 65.0 0 0 240.01 39.15
  Q 240.29 39.82 240.24 40.23
  A 0.33 0.33 0.0 0 1 239.66 40.41
  Q 238.33 38.78 236.85 40.48
  A 0.35 0.35 0.0 0 1 236.27 40.10
  Q 236.86 38.88 236.68 38.34
  Z"
/>
<path fill="#fecc01" d="
  M 283.52 38.29
  Q 283.36 37.82 282.18 37.17
  A 0.35 0.35 0.0 0 1 282.42 36.53
  Q 284.61 37.04 284.74 34.94
  A 0.33 0.33 0.0 0 1 285.31 34.75
  Q 285.59 35.06 285.76 35.75
  A 1.14 0.83 79.1 0 0 286.72 36.65
  Q 288.18 36.51 288.30 36.89
  Q 288.37 37.10 287.10 37.83
  A 1.14 0.83 65.3 0 0 286.84 39.12
  Q 287.11 39.79 287.06 40.20
  A 0.33 0.33 0.0 0 1 286.48 40.37
  Q 285.16 38.74 283.67 40.43
  A 0.35 0.35 0.0 0 1 283.10 40.05
  Q 283.69 38.83 283.52 38.29
  Z"
/>
<path fill="#fecc01" d="
  M 242.62 48.21
  L 244.38 48.22
  A 0.30 0.30 0.0 0 1 244.56 48.76
  L 243.14 49.81
  A 0.30 0.30 0.0 0 0 243.03 50.14
  L 243.56 51.83
  A 0.30 0.30 0.0 0 1 243.10 52.16
  L 241.66 51.13
  A 0.30 0.30 0.0 0 0 241.32 51.13
  L 239.88 52.16
  A 0.30 0.30 0.0 0 1 239.42 51.83
  L 239.95 50.14
  A 0.30 0.30 0.0 0 0 239.84 49.81
  L 238.42 48.76
  A 0.30 0.30 0.0 0 1 238.60 48.22
  L 240.36 48.21
  A 0.30 0.30 0.0 0 0 240.65 48.00
  L 241.21 46.32
  A 0.30 0.30 0.0 0 1 241.77 46.32
  L 242.33 48.00
  A 0.30 0.30 0.0 0 0 242.62 48.21
  Z"
/>
<path fill="#fecc01" d="
  M 280.25 49.93
  Q 280.09 49.45 278.87 48.79
  A 0.36 0.36 0.0 0 1 279.11 48.13
  Q 281.38 48.63 281.49 46.47
  A 0.34 0.34 0.0 0 1 282.08 46.27
  Q 282.37 46.58 282.55 47.30
  A 1.18 0.85 78.7 0 0 283.55 48.22
  Q 285.05 48.06 285.18 48.45
  Q 285.25 48.67 283.94 49.43
  A 1.18 0.85 64.9 0 0 283.69 50.76
  Q 283.97 51.44 283.92 51.87
  A 0.34 0.34 0.0 0 1 283.32 52.06
  Q 281.95 50.38 280.43 52.13
  A 0.36 0.36 0.0 0 1 279.84 51.75
  Q 280.44 50.49 280.25 49.93
  Z"
/>
<circle fill="#000000" cx="137.38" cy="53.46" r="1.53"/>
<path fill="#000000" d="
  M 68.40 67.41
  Q 64.20 68.27 61.82 67.48
  C 53.43 64.69 56.85 49.45 67.98 53.54
  A 0.86 0.84 10.6 0 1 68.54 54.33
  L 68.54 55.07
  A 0.74 0.74 0.0 0 1 67.53 55.76
  C 61.81 53.53 59.05 57.49 60.46 62.75
  Q 61.22 65.59 65.54 65.67
  A 0.82 0.82 0.0 0 0 66.38 64.85
  L 66.38 60.82
  A 0.59 0.58 0.0 0 1 66.97 60.24
  L 68.45 60.24
  A 0.56 0.55 0.0 0 1 69.01 60.79
  L 69.01 66.67
  A 0.76 0.75 -5.6 0 1 68.40 67.41
  Z"
/>
<path fill="#000000" d="
  M 13.74 57.71
  L 13.74 67.07
  A 0.40 0.40 0.0 0 1 13.34 67.47
  L 11.55 67.47
  A 0.45 0.44 90.0 0 1 11.11 67.02
  L 11.11 54.45
  A 1.44 1.43 -63.8 0 1 13.68 53.57
  L 20.04 61.88
  A 0.19 0.19 0.0 0 0 20.38 61.76
  L 20.38 53.83
  A 0.60 0.60 0.0 0 1 20.98 53.23
  L 22.44 53.23
  A 0.57 0.57 0.0 0 1 23.01 53.80
  L 23.01 66.28
  A 1.34 1.33 -62.1 0 1 20.57 67.03
  L 14.16 57.58
  A 0.23 0.23 0.0 0 0 13.74 57.71
  Z"
/>
<path fill="#000000" d="
  M 169.12 61.58
  L 169.12 64.92
  A 0.45 0.45 0.0 0 0 169.57 65.37
  L 175.80 65.37
  A 0.45 0.45 0.0 0 1 176.25 65.82
  L 176.25 67.04
  A 0.45 0.45 0.0 0 1 175.80 67.49
  L 166.95 67.49
  A 0.45 0.45 0.0 0 1 166.50 67.04
  L 166.50 53.69
  A 0.45 0.45 0.0 0 1 166.95 53.24
  L 175.31 53.24
  A 0.45 0.45 0.0 0 1 175.76 53.69
  L 175.76 54.93
  A 0.45 0.45 0.0 0 1 175.31 55.38
  L 169.58 55.38
  A 0.45 0.45 0.0 0 0 169.13 55.83
  L 169.13 58.42
  A 0.45 0.45 0.0 0 0 169.58 58.87
  L 174.55 58.87
  A 0.45 0.45 0.0 0 1 175.00 59.32
  L 175.00 60.68
  A 0.45 0.45 0.0 0 1 174.55 61.13
  L 169.57 61.13
  A 0.45 0.45 0.0 0 0 169.12 61.58
  Z"
/>
<path fill="#000000" d="
  M 184.39 65.62
  Q 186.84 65.61 187.21 63.49
  Q 187.57 61.46 187.32 53.85
  A 0.59 0.59 0.0 0 1 187.91 53.24
  L 189.39 53.24
  A 0.59 0.58 -0.0 0 1 189.98 53.82
  Q 190.03 58.66 190.00 62.23
  C 189.97 65.91 187.88 67.86 184.40 67.86
  C 180.91 67.87 178.81 65.93 178.77 62.25
  Q 178.73 58.68 178.76 53.84
  A 0.59 0.58 -0.2 0 1 179.35 53.26
  L 180.83 53.25
  A 0.59 0.59 0.0 0 1 181.42 53.86
  Q 181.20 61.47 181.56 63.50
  Q 181.94 65.62 184.39 65.62
  Z"
/>
<path fill="#000000" d="
  M 51.28 59.42
  L 51.28 64.03
  A 1.15 1.08 -65.8 0 0 51.52 64.73
  Q 52.57 66.07 54.35 65.37
  A 0.81 0.81 0.0 0 1 55.45 66.13
  L 55.45 66.66
  A 0.92 0.91 84.2 0 1 54.72 67.56
  Q 48.67 68.83 48.65 63.40
  Q 48.63 54.86 48.61 54.34
  A 0.64 0.63 -4.8 0 1 49.17 53.68
  L 50.66 53.49
  A 0.52 0.51 -3.5 0 1 51.24 54.00
  L 51.24 56.05
  A 0.58 0.58 0.0 0 0 51.82 56.63
  L 54.52 56.63
  A 0.66 0.65 90.0 0 1 55.17 57.29
  L 55.17 58.05
  A 0.72 0.72 0.0 0 1 54.45 58.77
  L 51.93 58.77
  A 0.65 0.65 0.0 0 0 51.28 59.42
  Z"
/>
<path fill="#000000" d="
  M 130.54 58.74
  A 0.65 0.65 0.0 0 0 129.88 59.39
  L 129.85 64.00
  A 1.15 1.08 -65.3 0 0 130.08 64.70
  Q 131.12 66.05 132.91 65.36
  A 0.81 0.81 0.0 0 1 134.00 66.13
  L 134.00 66.66
  A 0.92 0.91 84.7 0 1 133.26 67.56
  Q 127.20 68.78 127.22 63.35
  Q 127.27 54.80 127.25 54.28
  A 0.64 0.63 -4.4 0 1 127.82 53.63
  L 129.31 53.45
  A 0.52 0.51 -3.0 0 1 129.89 53.96
  L 129.87 56.02
  A 0.58 0.58 0.0 0 0 130.45 56.60
  L 133.15 56.62
  A 0.66 0.65 -89.5 0 1 133.79 57.29
  L 133.79 58.05
  A 0.72 0.72 0.0 0 1 133.06 58.76
  L 130.54 58.74
  Z"
/>
<path fill="#fecc01" d="
  M 248.25 58.57
  Q 248.10 58.09 246.87 57.42
  A 0.36 0.36 0.0 0 1 247.13 56.76
  Q 249.39 57.29 249.52 55.13
  A 0.34 0.34 0.0 0 1 250.11 54.93
  Q 250.40 55.24 250.57 55.96
  A 1.18 0.85 79.3 0 0 251.56 56.89
  Q 253.06 56.74 253.19 57.14
  Q 253.25 57.36 251.94 58.11
  A 1.18 0.85 65.4 0 0 251.67 59.44
  Q 251.95 60.12 251.90 60.54
  A 0.34 0.34 0.0 0 1 251.30 60.73
  Q 249.94 59.04 248.41 60.78
  A 0.36 0.36 0.0 0 1 247.82 60.38
  Q 248.43 59.13 248.25 58.57
  Z"
/>
<path fill="#fecc01" d="
  M 274.54 56.89
  L 276.25 56.83
  A 0.34 0.34 0.0 0 1 276.45 57.45
  L 275.03 58.40
  A 0.34 0.34 0.0 0 0 274.90 58.80
  L 275.48 60.40
  A 0.34 0.34 0.0 0 1 274.95 60.78
  L 273.62 59.73
  A 0.34 0.34 0.0 0 0 273.20 59.72
  L 271.86 60.78
  A 0.34 0.34 0.0 0 1 271.33 60.39
  L 271.92 58.79
  A 0.34 0.34 0.0 0 0 271.79 58.39
  L 270.38 57.44
  A 0.34 0.34 0.0 0 1 270.58 56.82
  L 272.28 56.89
  A 0.34 0.34 0.0 0 0 272.62 56.64
  L 273.09 55.00
  A 0.34 0.34 0.0 0 1 273.74 55.01
  L 274.20 56.64
  A 0.34 0.34 0.0 0 0 274.54 56.89
  Z"
/>
<path fill="#000000" d="
  M 28.38 62.88
  A 0.55 0.54 -14.6 0 0 27.90 63.69
  Q 29.51 66.50 33.12 65.27
  A 0.85 0.85 0.0 0 1 34.24 66.07
  L 34.24 66.51
  A 0.95 0.94 -5.1 0 1 33.46 67.44
  C 27.78 68.45 23.37 65.59 25.88 59.36
  C 27.15 56.23 31.43 55.29 33.70 57.71
  Q 35.04 59.15 35.05 62.19
  A 0.69 0.69 0.0 0 1 34.36 62.88
  L 28.38 62.88
  Z
  M 28.39 61.17
  L 32.31 61.09
  A 0.29 0.29 0.0 0 0 32.60 60.80
  L 32.60 60.62
  A 2.13 2.09 -1.1 0 0 30.43 58.57
  L 30.19 58.57
  A 2.13 2.09 -1.1 0 0 28.10 60.70
  L 28.10 60.88
  A 0.29 0.29 0.0 0 0 28.39 61.17
  Z"
/>
<path fill="#000000" d="
  M 74.70 62.87
  A 0.55 0.54 -14.4 0 0 74.21 63.67
  Q 75.81 66.49 79.42 65.28
  A 0.85 0.84 -9.1 0 1 80.53 66.08
  L 80.53 66.52
  A 0.95 0.94 -4.8 0 1 79.75 67.44
  C 74.07 68.43 69.68 65.55 72.22 59.34
  C 73.50 56.22 77.78 55.30 80.03 57.73
  Q 81.36 59.17 81.36 62.21
  A 0.69 0.69 0.0 0 1 80.67 62.89
  L 74.70 62.87
  Z
  M 74.55 61.16
  L 78.69 61.12
  A 0.22 0.22 0.0 0 0 78.91 60.90
  L 78.91 60.78
  A 2.24 2.22 89.5 0 0 76.67 58.56
  L 76.53 58.56
  A 2.24 2.22 89.5 0 0 74.33 60.82
  L 74.33 60.94
  A 0.22 0.22 0.0 0 0 74.55 61.16
  Z"
/>
<path fill="#000000" d="
  M 98.60 62.89
  A 0.55 0.54 -14.8 0 0 98.12 63.70
  Q 99.74 66.51 103.35 65.27
  A 0.85 0.85 0.0 0 1 104.47 66.07
  L 104.47 66.51
  A 0.95 0.95 0.0 0 1 103.69 67.44
  C 98.01 68.47 93.59 65.61 96.09 59.37
  C 97.36 56.23 101.64 55.28 103.92 57.70
  Q 105.26 59.14 105.28 62.19
  A 0.69 0.69 0.0 0 1 104.59 62.88
  L 98.60 62.89
  Z
  M 98.61 61.16
  L 102.45 61.10
  A 0.27 0.27 0.0 0 0 102.71 60.83
  L 102.71 60.57
  A 2.10 2.09 -0.8 0 0 100.58 58.51
  L 100.40 58.51
  A 2.10 2.09 -0.8 0 0 98.33 60.63
  L 98.33 60.89
  A 0.27 0.27 0.0 0 0 98.61 61.16
  Z"
/>
<path fill="#000000" d="
  M 110.49 66.95
  A 0.43 0.42 -90.0 0 1 110.07 67.38
  L 108.27 67.38
  A 0.41 0.40 -90.0 0 1 107.87 66.97
  L 107.87 57.69
  A 0.84 0.84 0.0 0 1 108.49 56.88
  Q 111.08 56.17 113.89 56.31
  A 0.61 0.60 1.5 0 1 114.47 56.91
  L 114.47 58.03
  A 0.63 0.63 0.0 0 1 113.84 58.66
  L 111.04 58.66
  A 0.55 0.55 0.0 0 0 110.49 59.21
  L 110.49 66.95
  Z"
/>
<path fill="#000000" d="
  M 123.77 67.29
  C 121.28 68.06 115.99 68.57 115.62 64.74
  C 115.31 61.45 118.50 60.75 121.10 61.06
  A 0.71 0.71 0.0 0 0 121.89 60.41
  Q 122.10 58.11 117.84 58.66
  A 1.02 1.02 0.0 0 1 116.70 57.73
  L 116.70 57.69
  A 1.13 1.11 84.0 0 1 117.66 56.49
  C 126.01 55.39 124.33 61.45 124.35 66.49
  A 0.84 0.82 -9.5 0 1 123.77 67.29
  Z
  M 121.91 65.10
  L 121.83 63.34
  A 0.66 0.66 0.0 0 0 121.14 62.71
  L 119.92 62.76
  A 1.86 1.37 -2.5 0 0 118.12 64.21
  L 118.14 64.55
  A 1.86 1.37 -2.5 0 0 120.06 65.84
  L 121.28 65.79
  A 0.66 0.66 0.0 0 0 121.91 65.10
  Z"
/>
<path fill="#000000" d="
  M 146.6518 56.3425
  A 5.79 5.31 -88.3 0 1 151.7877 62.2875
  A 5.79 5.31 -88.3 0 1 146.3082 67.9175
  A 5.79 5.31 -88.3 0 1 141.1723 61.9725
  A 5.79 5.31 -88.3 0 1 146.6518 56.3425
  Z
  M 146.3937 58.5700
  A 3.59 2.67 -90.1 0 0 143.7300 62.1647
  A 3.59 2.67 -90.1 0 0 146.4063 65.7500
  A 3.59 2.67 -90.1 0 0 149.0700 62.1553
  A 3.59 2.67 -90.1 0 0 146.3937 58.5700
  Z"
/>
<path fill="#000000" d="
  M 93.15 67.05
  A 0.42 0.41 90.0 0 1 92.74 67.47
  L 90.95 67.47
  A 0.39 0.39 0.0 0 1 90.56 67.08
  L 90.56 60.17
  A 1.66 1.66 0.0 0 0 88.90 58.51
  L 87.41 58.51
  A 0.78 0.77 90.0 0 0 86.64 59.29
  L 86.64 66.94
  A 0.44 0.43 -0.0 0 1 86.20 67.37
  L 84.58 67.37
  A 0.45 0.45 0.0 0 1 84.13 66.92
  L 84.13 57.52
  A 0.72 0.72 0.0 0 1 84.73 56.81
  C 94.31 55.24 93.13 59.93 93.15 67.05
  Z"
/>
<rect fill="#000000" x="135.99" y="56.62" width="2.64" height="10.86" rx="0.38"/>
<path fill="#000000" d="
  M 163.36 67.06
  A 0.42 0.41 -89.8 0 1 162.95 67.48
  L 161.16 67.47
  A 0.39 0.39 0.0 0 1 160.77 67.08
  L 160.79 60.17
  A 1.66 1.66 0.0 0 0 159.13 58.51
  L 157.64 58.50
  A 0.78 0.77 -89.8 0 0 156.87 59.28
  L 156.85 66.93
  A 0.44 0.43 0.2 0 1 156.41 67.36
  L 154.79 67.35
  A 0.45 0.45 0.0 0 1 154.34 66.90
  L 154.37 57.51
  A 0.72 0.72 0.0 0 1 154.97 56.80
  C 164.55 55.25 163.36 59.94 163.36 67.06
  Z"
/>
<path fill="#000000" d="
  M 41.40 59.88
  Q 41.42 59.88 41.44 59.88
  A 0.13 0.04 -0.1 0 0 41.53 59.85
  L 43.29 57.29
  A 1.26 1.24 16.8 0 1 44.33 56.74
  L 45.83 56.74
  A 0.36 0.36 0.0 0 1 46.12 57.32
  L 43.11 61.34
  A 0.75 0.74 46.5 0 0 43.09 62.22
  L 46.29 66.94
  A 0.45 0.45 0.0 0 1 45.92 67.64
  L 44.64 67.64
  A 1.12 1.12 0.0 0 1 43.66 67.06
  Q 43.04 65.93 41.65 64.18
  Q 41.53 64.03 41.39 64.03
  Q 41.26 64.03 41.14 64.18
  Q 39.75 65.93 39.13 67.06
  A 1.12 1.12 0.0 0 1 38.15 67.64
  L 36.87 67.64
  A 0.45 0.45 0.0 0 1 36.50 66.94
  L 39.70 62.22
  A 0.75 0.74 -46.5 0 0 39.68 61.34
  L 36.67 57.32
  A 0.36 0.36 0.0 0 1 36.96 56.74
  L 38.46 56.74
  A 1.26 1.24 -16.7 0 1 39.50 57.29
  L 41.26 59.85
  A 0.13 0.04 0.1 0 0 41.35 59.88
  Q 41.37 59.88 41.40 59.88
  Z"
/>
<path fill="#fecc01" d="
  M 260.09 62.04
  Q 259.94 61.58 258.75 60.94
  A 0.35 0.35 0.0 0 1 258.99 60.30
  Q 261.18 60.79 261.28 58.70
  A 0.33 0.33 0.0 0 1 261.86 58.51
  Q 262.14 58.81 262.31 59.50
  A 1.13 0.82 78.7 0 0 263.27 60.39
  Q 264.72 60.23 264.85 60.62
  Q 264.91 60.82 263.65 61.56
  A 1.13 0.82 64.9 0 0 263.41 62.85
  Q 263.68 63.50 263.63 63.91
  A 0.33 0.33 0.0 0 1 263.05 64.09
  Q 261.73 62.48 260.26 64.17
  A 0.35 0.35 0.0 0 1 259.69 63.79
  Q 260.27 62.58 260.09 62.04
  Z"
/>
</svg>
