<svg version="1.2" xmlns="http://www.w3.org/2000/svg" viewBox="0 0 384 129" width="384" height="129"><style>.a{fill:#f00}</style><path class="a" d="m69.6 32.2v-9.2q0-0.1 0-0.2-0.1-0.1-0.1-0.1-0.1-0.1-0.2-0.1-0.1 0-0.2 0l-63.6 23.7q-0.1 0-0.2 0-0.1 0-0.2-0.1 0 0-0.1-0.1 0-0.1 0-0.2v-14.9q0 0 0-0.1 0 0 0.1-0.1 0 0 0-0.1 0.1 0 0.1 0l63.9-27.5q0.1 0 0.2 0 0.1 0 0.2 0.1 0 0 0.1 0.1 0 0.1 0 0.2v16.7q0 0.1 0 0.1 0.1 0.1 0.1 0.1 0 0.1 0 0.1 0.1 0 0.1 0.1l44.4 23.7q0.1 0.1 0.1 0.1 0 0 0.1 0.1 0 0 0 0.1 0 0 0 0.1v6.6q0 0.1 0 0.2-0.1 0.1-0.1 0.1-0.1 0.1-0.2 0.1-0.1 0-0.2 0l-44.1-19.3q0 0 0 0-0.1-0.1-0.1-0.1 0 0-0.1-0.1 0 0 0-0.1z"/><path  d="m251.9 5.6c1.8 0 3.7 0.4 5.4 1.1 1.7 0.7 3.3 1.8 4.6 3.1 1.3 1.4 2.4 3 3.1 4.7 0.7 1.8 1.1 3.6 1.1 5.5 0 1.9-0.4 3.8-1.1 5.5-0.7 1.8-1.7 3.4-3 4.7-1.4 1.3-2.9 2.4-4.6 3.1-1.8 0.8-3.6 1.1-5.5 1.1-1.8 0-3.7-0.3-5.4-1.1-1.7-0.7-3.3-1.7-4.6-3.1-1.3-1.3-2.4-2.9-3.1-4.6-0.7-1.8-1.1-3.6-1.1-5.5 0-1.9 0.4-3.8 1.1-5.6 0.7-1.7 1.7-3.3 3-4.6 1.4-1.4 2.9-2.4 4.6-3.2 1.8-0.7 3.6-1.1 5.5-1.1zm8.6 12.6q0-1.6-0.6-3-0.6-1.5-1.7-2.6-1.1-1.1-2.6-1.7-1.4-0.6-3-0.5h-1.4q-1.6 0-3 0.6-1.5 0.6-2.6 1.7-1.1 1.1-1.7 2.5-0.6 1.5-0.6 3l0.1 3.7q0 1.5 0.6 3 0.6 1.4 1.7 2.5 1.1 1.1 2.5 1.7 1.5 0.6 3 0.6h1.5q1.6 0 3-0.6 1.4-0.6 2.5-1.7 1.1-1.1 1.7-2.6 0.6-1.4 0.6-3z"/><path  d="m163.3 6h4q0.1 0 0.2 0.1 0.1 0.1 0.1 0.2 0.1 0.1 0.1 0.2 0 0.1-0.1 0.2l-9.8 12.1q0 0-0.1 0.1 0 0 0 0.1 0 0 0 0.1 0.1 0 0.1 0.1l10.9 14.6q0 0 0 0 0.1 0 0 0.1 0 0 0 0 0 0-0.1 0h-5.4q-0.1 0-0.1 0-0.1 0-0.1 0-0.1 0-0.1-0.1-0.1 0-0.1 0-3.8-4.9-7.8-10.3c-1.3-1.7-2.2-2.2-4.1-1.7q-0.1 0-0.2 0-0.1 0.1-0.2 0.2 0 0-0.1 0.1 0 0.1 0 0.2v11.2q0 0.1 0 0.2-0.1 0.1-0.1 0.1-0.1 0.1-0.2 0.1-0.1 0.1-0.2 0.1h-4.2q-0.1 0-0.2-0.1-0.1 0-0.1-0.1-0.1 0-0.1-0.1-0.1-0.1-0.1-0.2v-27q0-0.1 0.1-0.2 0-0.1 0.1-0.1 0-0.1 0.1-0.1 0.1-0.1 0.2-0.1h4.3q0.1 0 0.2 0.1 0 0 0.1 0 0.1 0.1 0.1 0.2 0 0.1 0 0.1v10.7q0 0.1 0.1 0.3 0 0.1 0.1 0.2 0.1 0 0.2 0.1 0.1 0.1 0.2 0.1 1.8 0.2 3-1.3 4-5.2 7.6-9.7 0.1-0.1 0.3-0.3 0.2-0.1 0.4-0.3 0.3-0.1 0.5-0.1 0.2-0.1 0.5-0.1z"/><path  d="m220.4 33.6q-0.9 0.5-2.1 0.4c-1.4 0-3.1 0.4-3.8-1q-0.8-1.7-1.9-5.3-0.1-0.1-0.2-0.2-0.1-0.1-0.2-0.2-0.1-0.1-0.2-0.2-0.2 0-0.3 0h-10.4q-0.1 0-0.2 0-0.1 0.1-0.2 0.1-0.1 0.1-0.1 0.2-0.1 0.1-0.1 0.2l-2.2 5.5q-0.1 0.2-0.2 0.4-0.1 0.1-0.3 0.2-0.2 0.2-0.4 0.2-0.1 0.1-0.3 0.1h-8.7q-0.3 0-0.5-0.1-0.2 0-0.5-0.2-0.2-0.1-0.4-0.2-0.2-0.2-0.4-0.4-0.7-0.9-5.4-8.3c-1.2-1.8-2-1.8-3.9-1.8q-0.1 0-0.3 0.1-0.1 0-0.2 0.1-0.1 0.1-0.2 0.3 0 0.1 0 0.2v9.7q0 0.1-0.1 0.2 0 0.1-0.1 0.2-0.1 0.1-0.1 0.1-0.1 0.1-0.2 0.1h-4.2q-0.1 0-0.2-0.1-0.1 0-0.2-0.1 0-0.1-0.1-0.2 0-0.1 0-0.2v-26.7q0-0.1 0-0.2 0.1-0.1 0.1-0.2 0.1-0.1 0.2-0.1 0.1-0.1 0.2-0.1 8.3-0.3 11.9 0.3c8.5 1.5 9.1 12 1.5 15.3q-0.1 0.1-0.2 0.2-0.1 0.1-0.2 0.2 0 0.2 0 0.3 0.1 0.1 0.1 0.2l7.6 10.2q0.1 0 0.2 0.1 0.1 0 0.2 0 0.1 0 0.2-0.1 0.1 0 0.1-0.1l10.2-26.2q0.1-0.1 0.1-0.2 0.1-0.1 0.2-0.1 0.1-0.1 0.2-0.1 0.1-0.1 0.2-0.1h4.1q0.2 0 0.3 0.1 0.1 0 0.3 0.1 0.1 0.1 0.2 0.2 0.1 0.1 0.1 0.2 2.8 7.2 9.7 25 0.4 0.9 1.3 2zm-43.7-23.1l0.1 8.4q0 0.1 0 0.1 0.1 0.1 0.1 0.2 0.1 0 0.2 0.1 0.1 0 0.2 0h3.5q1 0 1.9-0.4 0.9-0.3 1.6-0.9 0.7-0.7 1-1.5 0.4-0.8 0.4-1.7v-0.4q0-0.9-0.4-1.7-0.4-0.8-1.1-1.4-0.7-0.6-1.6-0.9-0.9-0.4-1.8-0.4l-3.6 0.1q-0.1 0-0.2 0-0.1 0-0.1 0.1-0.1 0.1-0.1 0.2 0 0-0.1 0.1zm29.9 12.9q2 0 3.9 0 0.1 0 0.1 0 0.1-0.1 0.2-0.2 0 0 0-0.1 0-0.1 0-0.2-2.2-6-4.1-11.2 0-0.1-0.1-0.1-0.2 0-0.2 0.1-1.9 5.2-4.1 11.2 0 0.1 0 0.2 0 0.1 0 0.1 0.1 0.1 0.2 0.2 0 0 0.1 0 1.9 0 4 0z"/><path  d="m220.4 33.6l0.3-3.3q0-0.1 0.1-0.2 0-0.1 0.1-0.1 0.1-0.1 0.2-0.2 0.1 0 0.3 0 0.2 0 1.9 0.1c3.5 0.4 5.1-1.7 5.1-5.6q0-10.8 0-17.9 0-0.1 0-0.1 0-0.1 0.1-0.2 0 0 0.1-0.1 0.1 0 0.2 0h4.3q0.1 0 0.2 0 0.1 0.1 0.1 0.1 0.1 0.1 0.1 0.2 0.1 0.1 0.1 0.2 0 8.2 0 15.8c0 5.8-1.1 10.4-6.8 11.7q-3.1 0.8-6.4-0.4z"/><path  d="m278.7 25.7q0 0 0 0 0 0.1 0.1 0.1 0 0 0.1-0.1 0 0 0 0l5.7-18.5q0.1-0.1 0.1-0.2 0.1-0.1 0.2-0.2 0-0.1 0.1-0.2 0.1-0.1 0.2-0.1 1.8-0.9 4.2 0 0.1 0.1 0.1 0.1 0.1 0.1 0.2 0.2 0.1 0 0.1 0.1 0.1 0.1 0.1 0.2l5.6 18.6q0.1 0.1 0.1 0.1 0.1 0.1 0.2 0.1 0 0 0.1-0.1 0 0 0.1-0.1l5.2-18.4q0-0.3 0.2-0.5 0.1-0.2 0.3-0.4 0.2-0.1 0.5-0.2 0.2-0.1 0.5-0.1h8.9q0.2 0 0.4 0 0.1 0.1 0.3 0.2 0.2 0.1 0.3 0.2 0.2 0.2 0.3 0.3l6.9 12q0 0 0 0.1 0 0 0.1 0 0 0 0 0 0-0.1 0-0.1l6.4-11.9q0.1-0.2 0.3-0.3 0.1-0.2 0.3-0.3 0.2-0.1 0.4-0.2 0.2 0 0.4 0h4.1q0 0 0.1 0 0.1 0.1 0.1 0.2 0.1 0 0.1 0.1 0 0.1-0.1 0.2l-9.3 16.2q-0.1 0.1-0.2 0.3-0.1 0.2-0.1 0.3 0 0.2-0.1 0.4 0 0.2 0 0.4v9.2q0 0.1 0 0.2-0.1 0.1-0.2 0.2-0.1 0.1-0.2 0.2-0.1 0-0.2 0h-3.9q-0.1 0-0.3 0-0.1-0.1-0.2-0.2 0-0.1-0.1-0.2-0.1-0.1 0-0.2v-9.2q-0.1-0.2-0.1-0.4 0-0.2-0.1-0.4 0-0.2-0.1-0.4-0.1-0.2-0.2-0.3l-9-15.7q-0.1-0.1-0.2-0.2-0.2-0.1-0.4-0.1-0.1 0.1-0.3 0.2-0.1 0.1-0.2 0.2l-8.1 26.4q-0.1 0.1-0.1 0.2-0.1 0.1-0.2 0.2-0.1 0-0.2 0.1-0.1 0-0.2 0h-3.7q-0.1 0-0.2 0-0.2-0.1-0.3-0.2-0.1 0-0.2-0.1 0-0.2-0.1-0.3l-5.8-19.1q0-0.1-0.1-0.2-0.1-0.1-0.3-0.1-0.1 0-0.2 0.1-0.1 0.1-0.2 0.2l-5.9 19q0 0.2-0.1 0.3-0.1 0.1-0.2 0.2-0.1 0.1-0.3 0.2-0.1 0-0.3 0h-3.5q-0.2 0-0.3 0-0.1-0.1-0.2-0.1-0.1-0.1-0.2-0.2-0.1-0.1-0.1-0.3l-8.1-26.7q0-0.1 0-0.2 0-0.1 0.1-0.2 0-0.1 0.1-0.2 0.1 0 0.3 0h3.7q0.3 0 0.5 0.1 0.2 0 0.3 0.1 0.2 0.2 0.3 0.4 0.2 0.1 0.2 0.3z"/><path class="a" d="m69.6 64.3v-10.6q0-0.1 0-0.2 0-0.1-0.1-0.1-0.1-0.1-0.2-0.1-0.1-0.1-0.2 0l-63.5 13.6q-0.1 0-0.2 0-0.1 0-0.2-0.1-0.1-0.1-0.2-0.1 0-0.1 0-0.3v-12.8q0 0 0-0.1 0-0.1 0.1-0.1 0-0.1 0.1-0.1 0.1-0.1 0.1-0.1l63.7-19.3q0.1 0 0.2 0 0.1 0 0.2 0.1 0.1 0 0.2 0.1 0 0.1 0 0.3v17.1q0 0.1 0.1 0.2 0 0.1 0 0.1 0.1 0.1 0.1 0.1 0.1 0.1 0.2 0.1l44.1 13.7q0.1 0 0.1 0 0.1 0.1 0.2 0.1 0 0.1 0 0.2 0.1 0 0.1 0.1v6.8q0 0.1-0.1 0.2 0 0.1-0.1 0.2-0.1 0.1-0.2 0.1-0.1 0-0.2 0l-43.9-8.7q-0.1 0-0.1 0-0.1-0.1-0.1-0.1-0.1-0.1-0.1-0.2-0.1-0.1-0.1-0.1z"/><path  d="m149.8 75.3h-4q-0.1 0-0.2 0-0.1-0.1-0.2-0.2-0.1 0-0.1-0.1-0.1-0.1-0.1-0.2v-27.1q0 0 0.1-0.1 0-0.1 0.1-0.1 0-0.1 0.1-0.1 0 0 0.1 0c7.6 0 20.3-1.7 19.4 9.9-0.6 7.6-8.1 8.4-14 8.1q-0.1 0-0.2 0.1-0.1 0-0.2 0.1-0.1 0.1-0.1 0.2-0.1 0.1-0.1 0.2v8.7q0 0.1 0 0.2-0.1 0.2-0.2 0.2 0 0.1-0.1 0.2-0.1 0-0.3 0zm0.6-23.5v9.2q0 0.1 0 0.2 0.1 0.1 0.1 0.1 0.1 0.1 0.2 0.1 0 0 0.1 0h4.1q1 0 1.9-0.3 0.9-0.4 1.6-1 0.7-0.7 1.1-1.5 0.4-0.9 0.4-1.8v-0.8q0-0.9-0.4-1.8-0.4-0.8-1.1-1.5-0.7-0.6-1.6-1-0.9-0.3-1.9-0.3h-4.1q-0.1 0-0.2 0.1 0 0-0.1 0-0.1 0.1-0.1 0.2 0 0 0 0.1z"/><path  d="m184.9 75.3h-15.5q0 0-0.1 0-0.1 0-0.1-0.1-0.1-0.1-0.1-0.1-0.1-0.1-0.1-0.2v-27.1q0-0.1 0.1-0.2 0 0 0.1-0.1 0-0.1 0.1-0.1 0.1 0 0.1 0h4.4q0.1 0 0.1 0 0.1 0 0.2 0.1 0 0.1 0.1 0.1 0 0.1 0 0.2v22.8q0 0.1 0 0.2 0.1 0 0.1 0.1 0.1 0.1 0.1 0.1 0.1 0 0.2 0h10.3q0.1 0 0.1 0.1 0.1 0 0.2 0 0 0.1 0.1 0.2 0 0.1 0 0.1v3.5q0 0.1 0 0.2-0.1 0-0.1 0.1-0.1 0.1-0.2 0.1 0 0-0.1 0z"/><path  d="m199.2 68.4q-4.3 0-5.1 0.1-0.1 0-0.2 0-0.2 0.1-0.3 0.1-0.1 0.1-0.2 0.2-0.1 0.2-0.1 0.3l-2.1 5.3q-0.1 0.2-0.2 0.3-0.1 0.1-0.2 0.2-0.2 0.1-0.3 0.2-0.2 0.1-0.4 0.1l-3.8 0.2q-0.1 0-0.2 0-0.1-0.1-0.2-0.2 0-0.1-0.1-0.2 0-0.1 0.1-0.2l10.4-26.8q0.1-0.1 0.2-0.2 0-0.1 0.1-0.2 0.1 0 0.2-0.1 0.1 0 0.3-0.1 0.2 0 2.1 0 2 0 2.2 0 0.1 0.1 0.2 0.1 0.2 0.1 0.2 0.1 0.1 0.1 0.2 0.2 0.1 0.1 0.1 0.2l10.5 26.8q0 0.1 0 0.2 0 0.2-0.1 0.2-0.1 0.1-0.1 0.2-0.2 0-0.3 0l-3.8-0.2q-0.1 0-0.3-0.1-0.2 0-0.3-0.2-0.2 0-0.3-0.2-0.1-0.1-0.2-0.3l-2-5.3q-0.1-0.1-0.2-0.3-0.1-0.1-0.2-0.2-0.1 0-0.2-0.1-0.2 0-0.3 0-0.7-0.1-5.1-0.1zm0.1-3.6q2 0 3.9 0 0.1 0 0.1-0.1 0.1 0 0.2-0.1 0-0.1 0-0.2 0 0 0-0.1-2.2-6.1-4-11.3-0.1-0.1-0.2-0.1-0.2 0-0.2 0.1-1.8 5.2-4.1 11.2 0 0.1 0 0.2 0 0.1 0 0.2 0.1 0 0.2 0.1 0 0 0.1 0 1.9 0.1 4 0.1z"/><path  d="m225.6 62.9q-3.8-5-5-6.5-0.1 0-0.1-0.1-0.1 0-0.1 0.1-0.1 0-0.1 0-0.1 0.1-0.1 0.1v18.4q0 0.1 0 0.2 0 0-0.1 0.1-0.1 0.1-0.1 0.1-0.1 0-0.2 0h-3.7q-0.1 0-0.1 0-0.1 0-0.2-0.1 0-0.1-0.1-0.1 0-0.1 0-0.2v-26.9q0-0.1 0-0.2 0.1-0.1 0.2-0.2 0-0.1 0.1-0.1 0.1-0.1 0.3-0.1 2-0.1 2.8 0.2 0.2 0 0.3 0.1 0.1 0 0.2 0.1 0.1 0.1 0.2 0.2 0.1 0 0.2 0.1 0.2 0.2 9.2 11.8 3.8 5 5 6.4 0.1 0 0.1 0.1 0.1 0 0.1 0 0.1-0.1 0.1-0.1 0.1-0.1 0.1-0.1v-18.4q0-0.1 0-0.1 0-0.1 0.1-0.2 0 0 0.1-0.1 0.1 0 0.2 0h3.7q0.1 0 0.1 0 0.1 0.1 0.2 0.1 0 0.1 0.1 0.2 0 0 0 0.1v26.9q0 0.1 0 0.2-0.1 0.1-0.2 0.2 0 0.1-0.1 0.2-0.2 0-0.3 0-2 0.1-2.8-0.2-0.2 0-0.3-0.1-0.1 0-0.2-0.1-0.1-0.1-0.2-0.1-0.1-0.1-0.2-0.2-0.2-0.2-9.2-11.7z"/><path class="a" d="m69.6 95.3v-9.9q0-0.1 0-0.2-0.1-0.2-0.2-0.3-0.1 0-0.2-0.1-0.1 0-0.2 0l-63.3 3.7q-0.2 0-0.3-0.1-0.1 0-0.2-0.1-0.1-0.1-0.2-0.2 0-0.1 0-0.3v-13.1q0-0.1 0-0.2 0.1-0.1 0.1-0.2 0.1-0.1 0.2-0.2 0.1 0 0.2 0l63.4-8.7q0.1 0 0.3 0 0.1 0.1 0.2 0.2 0.1 0 0.2 0.2 0 0.1 0 0.2v17.6q0 0.1 0.1 0.2 0 0.1 0.1 0.2 0.1 0.1 0.2 0.2 0.1 0 0.2 0l43.6 1.3q0.2 0 0.3 0.1 0.1 0 0.2 0.1 0 0.1 0.1 0.2 0 0.1 0 0.2v6.7q0 0.1 0 0.2-0.1 0.1-0.1 0.2-0.1 0.1-0.2 0.2-0.1 0-0.3 0l-43.5 2.6q-0.1 0-0.3-0.1-0.1 0-0.2-0.1-0.1-0.1-0.1-0.2-0.1-0.1-0.1-0.3z"/><path  d="m159.3 88.3c1.8-0.1 3.7 0.3 5.4 1 1.7 0.7 3.3 1.8 4.6 3.1 1.4 1.3 2.4 2.9 3.2 4.6 0.7 1.8 1.1 3.6 1.1 5.5 0 1.9-0.3 3.8-1 5.6-0.7 1.7-1.7 3.3-3 4.7-1.3 1.3-2.9 2.4-4.6 3.1-1.7 0.8-3.6 1.2-5.4 1.2-1.9 0-3.7-0.3-5.5-1.1-1.7-0.7-3.3-1.7-4.6-3-1.4-1.4-2.4-2.9-3.1-4.7-0.8-1.7-1.2-3.6-1.2-5.5 0-1.9 0.3-3.7 1-5.5 0.7-1.8 1.8-3.4 3.1-4.7 1.3-1.4 2.8-2.4 4.6-3.2 1.7-0.7 3.5-1.1 5.4-1.1zm8.7 12.6q0-1.6-0.5-3-0.6-1.5-1.7-2.6-1.1-1.1-2.6-1.7-1.4-0.6-3-0.6h-1.5q-1.5 0-3 0.5-1.4 0.6-2.5 1.7-1.1 1.1-1.8 2.6-0.6 1.4-0.6 3v3.6q0 1.6 0.6 3.1 0.6 1.4 1.7 2.5 1.1 1.1 2.5 1.7 1.5 0.6 3 0.7h1.5q1.6 0 3-0.6 1.5-0.6 2.6-1.7 1.1-1.1 1.7-2.6 0.6-1.4 0.6-3z"/><path  d="m223.1 102.5q0.1 0.1 0.8 0.3c3.7 0.8 4.5 5.2 3.4 8.3q-1.7 4.8-7.6 5.3-4.1 0.4-11.8 0.2-0.1 0-0.2-0.1-0.1 0-0.2-0.1-0.1-0.1-0.2-0.2 0-0.1 0-0.2v-26.9q0-0.1 0-0.2 0.1 0 0.1-0.1 0.1-0.1 0.2-0.1 0 0 0.1 0c6.2 0 16.9-1.4 18.9 4.8q1.8 5.5-3.5 8.3 0 0.1-0.1 0.2-0.1 0.1-0.1 0.2 0 0.1 0.1 0.2 0 0.1 0.1 0.1zm-10.7-9.2l0.1 7q0 0.1 0 0.2 0 0.1 0.1 0.1 0.1 0.1 0.2 0.1 0.1 0.1 0.2 0.1l4.7-0.1q0.9 0 1.6-0.2 0.8-0.3 1.4-0.8 0.6-0.5 0.9-1.2 0.3-0.6 0.3-1.4v-0.8q0-0.7-0.4-1.4-0.3-0.7-0.9-1.2-0.6-0.4-1.3-0.7-0.8-0.3-1.6-0.3l-4.8 0.1q-0.1 0-0.2 0-0.1 0-0.1 0.1-0.1 0.1-0.1 0.2-0.1 0.1-0.1 0.2zm0 11.5l0.1 7.4q0 0 0 0.1 0 0.1 0.1 0.1 0 0.1 0.1 0.1 0.1 0 0.1 0h5.7q0.9 0 1.7-0.3 0.7-0.3 1.3-0.8 0.6-0.6 0.9-1.3 0.4-0.7 0.4-1.4v-0.6q0-0.7-0.4-1.4-0.3-0.7-0.9-1.2-0.6-0.6-1.4-0.9-0.8-0.2-1.6-0.2h-5.7q-0.1 0-0.1 0-0.1 0-0.1 0.1-0.1 0.1-0.1 0.1-0.1 0.1-0.1 0.2z"/><path  d="m303 88.3c1.9 0 3.7 0.4 5.4 1.1 1.7 0.8 3.3 1.9 4.6 3.2 1.3 1.4 2.3 3 3 4.7 0.7 1.8 1 3.7 1 5.6 0 1.9-0.4 3.7-1.2 5.5-0.7 1.7-1.8 3.3-3.1 4.6-1.3 1.3-2.9 2.4-4.7 3.1-1.7 0.7-3.5 1-5.4 1-1.9 0-3.7-0.4-5.4-1.2-1.7-0.7-3.3-1.8-4.6-3.2-1.3-1.3-2.3-2.9-3-4.7-0.7-1.8-1-3.6-1-5.5 0-1.9 0.4-3.8 1.2-5.5 0.7-1.8 1.8-3.3 3.1-4.7 1.3-1.3 2.9-2.3 4.6-3 1.8-0.7 3.6-1.1 5.5-1zm8.4 12.6q0-1.6-0.6-3.1-0.6-1.4-1.7-2.5-1.1-1.1-2.6-1.7-1.4-0.6-3-0.6h-1.4q-1.6 0-3.1 0.6-1.4 0.6-2.5 1.7-1.1 1.1-1.7 2.5-0.6 1.5-0.6 3.1v3.6q0 1.5 0.6 3 0.6 1.4 1.7 2.5 1.1 1.2 2.5 1.8 1.5 0.5 3.1 0.5h1.4q1.6 0 3-0.5 1.5-0.6 2.6-1.8 1.1-1.1 1.7-2.5 0.6-1.5 0.6-3z"/><path  d="m178 89.1q0-0.1 0.1-0.2 0 0 0-0.1 0.1 0 0.1 0 0.1-0.1 0.2-0.1h10.7c1.8 0 3.5 0.3 5.2 1 1.6 0.6 3.1 1.6 4.4 2.9 1.3 1.2 2.3 2.7 3 4.3 0.6 1.6 1 3.3 1 5.1v1.2c0 1.8-0.3 3.5-1 5.1-0.7 1.7-1.7 3.1-2.9 4.4-1.3 1.2-2.8 2.2-4.4 2.9-1.7 0.7-3.4 1-5.2 1l-10.7 0.1q-0.1 0-0.2-0.1 0 0-0.1 0 0-0.1 0-0.2-0.1 0-0.1-0.1zm5.3 4.3l-0.1 18.7q0 0.1 0.1 0.2 0 0.1 0.1 0.1 0 0.1 0.1 0.1 0.1 0.1 0.2 0.1h5.1q1.7 0 3.3-0.7c1-0.4 1.9-1.1 2.7-1.9 0.8-0.8 1.5-1.8 1.9-2.8q0.7-1.6 0.7-3.4v-2.1c0-1.2-0.3-2.3-0.7-3.4-0.4-1.1-1-2-1.8-2.8-0.8-0.9-1.8-1.5-2.8-1.9-1-0.5-2.2-0.7-3.3-0.7h-5.1q-0.1 0-0.1 0-0.1 0-0.2 0.1-0.1 0.1-0.1 0.2 0 0 0 0.2z"/><path  d="m243.8 112.4c4.1 0 6.3-3 6.3-7.1q0-5.7 0-16.2 0 0 0-0.1 0.1-0.1 0.1-0.2 0.1 0 0.2-0.1 0.1 0 0.1 0h4.4q0 0 0.1 0 0.1 0.1 0.2 0.1 0 0.1 0 0.2 0.1 0 0.1 0.1 0.1 13.9-0.1 17.3c-0.4 6.3-5 10.5-11.5 10.5-6.4 0-11-4.2-11.4-10.5q-0.2-3.4-0.1-17.3 0-0.1 0.1-0.2 0 0 0.1-0.1 0 0 0.1-0.1 0.1 0 0.2 0h4.3q0.1 0 0.1 0 0.1 0.1 0.2 0.1 0 0.1 0.1 0.2 0 0 0 0.1 0 10.5 0 16.2c0 4.1 2.2 7.1 6.3 7.1z"/><path  d="m261.1 89.3q0-0.1 0-0.2 0.1-0.2 0.1-0.2 0.1-0.1 0.2-0.2 0.1 0 0.2 0h10.5c1.8-0.1 3.6 0.3 5.3 1 1.6 0.6 3.1 1.6 4.4 2.9 1.2 1.2 2.2 2.7 2.9 4.3 0.7 1.6 1.1 3.4 1.1 5.1v1.2c0 1.7-0.4 3.5-1 5.1-0.7 1.6-1.7 3.1-3 4.4-1.2 1.2-2.7 2.2-4.4 2.9-1.6 0.7-3.4 1-5.2 1l-10.5 0.1q-0.1 0-0.2-0.1-0.1 0-0.2-0.1 0-0.1-0.1-0.2 0-0.1 0-0.2zm5.2 4.1v18.6q0 0.1 0 0.2 0.1 0.1 0.1 0.2 0.1 0.1 0.2 0.1 0.1 0.1 0.2 0.1h5c1.1 0 2.3-0.2 3.3-0.7 1.1-0.4 2-1.1 2.8-1.9 0.8-0.8 1.4-1.8 1.9-2.9 0.4-1 0.6-2.2 0.6-3.3v-2.1q0-1.7-0.6-3.4c-0.4-1-1.1-2-1.9-2.8-0.7-0.9-1.7-1.5-2.7-2-1.1-0.4-2.2-0.6-3.3-0.6l-5-0.1q-0.1 0-0.2 0.1-0.1 0-0.2 0.1-0.1 0.1-0.1 0.2 0 0.1-0.1 0.2z"/><path  d="m329.5 108.3q0 0 0 0 0.1 0.1 0.1 0.1 0 0 0.1-0.1 0 0 0 0l5.8-18.5q0-0.1 0.1-0.2 0-0.1 0.1-0.2 0.1-0.1 0.2-0.2 0.1-0.1 0.2-0.1 1.8-0.9 4.1 0 0.1 0.1 0.2 0.1 0.1 0.1 0.2 0.2 0 0 0.1 0.1 0 0.1 0.1 0.2l5.6 18.6q0 0.1 0.1 0.1 0 0.1 0.1 0.1 0.1 0 0.1-0.1 0.1 0 0.1-0.1l5.2-18.4q0.1-0.3 0.2-0.5 0.2-0.2 0.4-0.4 0.2-0.1 0.5-0.2 0.2-0.1 0.5-0.1h8.8q0.2 0 0.4 0 0.2 0.1 0.4 0.2 0.2 0.1 0.3 0.2 0.1 0.2 0.2 0.3l7 12q0 0.1 0 0.1 0 0 0 0 0.1 0 0.1 0 0 0 0-0.1l6.4-11.9q0.1-0.2 0.3-0.3 0.1-0.2 0.3-0.3 0.2-0.1 0.3-0.1 0.2-0.1 0.4-0.1h4.1q0.1 0 0.2 0 0.1 0.1 0.1 0.2 0.1 0 0.1 0.1 0 0.1-0.1 0.2l-9.3 16.2q-0.1 0.2-0.2 0.3-0.1 0.2-0.1 0.4-0.1 0.1-0.1 0.3 0 0.2 0 0.4v9.2q0 0.1-0.1 0.3 0 0.1-0.1 0.2-0.1 0-0.2 0.1-0.1 0-0.2 0h-4q-0.1 0-0.2 0-0.1-0.1-0.2-0.1-0.1-0.1-0.1-0.3-0.1-0.1-0.1-0.2v-9.1q0-0.2 0-0.4 0-0.3-0.1-0.5 0-0.2-0.1-0.3-0.1-0.2-0.2-0.4l-9-15.7q-0.1-0.1-0.3-0.2-0.1-0.1-0.3-0.1-0.2 0.1-0.3 0.2-0.2 0.1-0.2 0.2l-8.2 26.4q0 0.2-0.1 0.2-0.1 0.1-0.1 0.2-0.1 0.1-0.2 0.1-0.2 0-0.3 0h-3.6q-0.2 0-0.3 0-0.1-0.1-0.2-0.1-0.1-0.1-0.2-0.2-0.1-0.1-0.1-0.3l-5.8-19.1q-0.1-0.1-0.2-0.2-0.1-0.1-0.2-0.1-0.2 0-0.3 0.1-0.1 0.1-0.1 0.2l-5.9 19.1q-0.1 0.1-0.2 0.2-0.1 0.2-0.2 0.2-0.1 0.1-0.3 0.2-0.1 0-0.3 0h-3.5q-0.1 0-0.3 0-0.1-0.1-0.2-0.1-0.1-0.1-0.2-0.2-0.1-0.1-0.1-0.3l-8.1-26.7q0-0.1 0-0.2 0-0.1 0.1-0.2 0.1-0.1 0.2-0.2 0.1 0 0.2 0h3.8q0.2 0 0.4 0 0.2 0.1 0.4 0.2 0.1 0.2 0.3 0.3 0.1 0.2 0.1 0.4z"/><path class="a" d="m69.2 116.8l-63.8-9.4q-0.1 0-0.2 0 0-0.1-0.1-0.1 0-0.1-0.1-0.2 0-0.1 0-0.1v-11q0-0.1 0-0.2 0.1-0.1 0.1-0.2 0.1 0 0.2-0.1 0.1 0 0.2 0l63.7 1.9q0.1 0 0.1 0 0.1 0.1 0.2 0.1 0.1 0.1 0.1 0.2 0 0.1 0 0.1v16.7q0 0.1 0.1 0.2 0 0.1 0.1 0.1 0.1 0.1 0.2 0.1 0.1 0.1 0.2 0l43.6-10.8q0.1-0.1 0.3 0 0.1 0 0.1 0 0.1 0.1 0.2 0.2 0 0.1 0 0.2v6.5q0 0.1 0 0.2 0 0-0.1 0.1 0 0.1-0.1 0.1 0 0.1-0.1 0.1l-43.9 15.3q-0.1 0-0.2 0-0.1 0-0.2-0.1-0.1-0.1-0.1-0.2-0.1-0.1-0.1-0.2v-9.1q0-0.1 0-0.1 0-0.1-0.1-0.2 0-0.1-0.1-0.1-0.1 0-0.2 0z"/></svg>