<svg version="1.2" xmlns="http://www.w3.org/2000/svg" viewBox="0 0 115 41" width="115" height="41"><defs><clipPath clipPathUnits="userSpaceOnUse" id="cp1"><path d="m46 0h68.36v41h-68.36z"/></clipPath></defs><style>.a{fill:#e30613}.b{fill:#fff}.c{fill:#1d1d1b}.d{fill:#808080}</style><g clip-path="url(#cp1)"><path class="a" d="m113.3 32.3h-54.3v1.7h54.3z"/></g><path class="b" d="m113.3 30.6h-54.3v1.7h54.3z"/><path class="c" d="m113.3 30.5h-54.3v0.1h54.3z"/><path class="c" d="m66.1 7.2v6.8h-0.9v-5q0-0.1 0.1-0.3 0-0.1 0-0.2l-2.4 4.3q-0.1 0.2-0.3 0.2h-0.1q-0.3 0-0.4-0.2l-2.4-4.3q0.1 0.2 0.1 0.5v5h-0.8v-6.8h0.6q0.2 0 0.2 0 0.1 0 0.2 0.1l2.3 4.2q0.1 0.1 0.1 0.2 0.1 0.2 0.1 0.3 0.1-0.1 0.1-0.3 0.1-0.1 0.1-0.2l2.3-4.2q0.1-0.1 0.2-0.1 0 0 0.2 0z"/><path class="c" d="m68.6 7.6q0 0.2-0.1 0.3 0 0.1-0.1 0.2-0.1 0-0.2 0.1-0.1 0-0.2 0-0.1 0-0.2 0-0.2-0.1-0.2-0.1-0.1-0.1-0.2-0.2 0-0.1 0-0.3 0-0.1 0-0.2 0.1-0.1 0.2-0.2 0-0.1 0.2-0.1 0.1-0.1 0.2-0.1 0.1 0 0.2 0.1 0.1 0 0.2 0.1 0.1 0.1 0.1 0.2 0.1 0.1 0.1 0.2zm-0.2 1.6v4.8h-0.8v-4.8z"/><path class="c" d="m70.6 9.9q0.2-0.2 0.3-0.4 0.2-0.1 0.4-0.2 0.2-0.1 0.4-0.2 0.2 0 0.5 0 0.4 0 0.7 0.1 0.3 0.1 0.5 0.4 0.2 0.2 0.3 0.6 0.1 0.3 0.1 0.7v3.1h-0.8v-3.1q0-0.5-0.3-0.8-0.2-0.3-0.7-0.3-0.4 0-0.7 0.1-0.4 0.2-0.6 0.5v3.6h-0.9v-4.8h0.5q0.2-0.1 0.2 0.1z"/><path class="c" d="m76.2 7.6q0 0.2-0.1 0.3 0 0.1-0.1 0.2-0.1 0-0.2 0.1-0.1 0-0.2 0-0.2 0-0.3 0-0.1-0.1-0.1-0.1-0.1-0.1-0.2-0.2 0-0.1 0-0.3 0-0.1 0-0.2 0.1-0.1 0.2-0.2 0-0.1 0.1-0.1 0.1-0.1 0.3-0.1 0.1 0 0.2 0.1 0.1 0 0.2 0.1 0.1 0.1 0.1 0.2 0.1 0.1 0.1 0.2zm-0.2 1.6v4.8h-0.8v-4.8z"/><path class="c" d="m80.2 9.9q-0.1 0.2-0.2 0.2-0.1 0-0.2-0.1 0-0.1-0.2-0.1-0.1-0.1-0.3-0.1-0.2-0.1-0.4-0.1-0.2 0-0.4 0.1-0.2 0-0.3 0.1-0.1 0.1-0.2 0.2 0 0.2 0 0.3 0 0.2 0.1 0.3 0.1 0.1 0.3 0.2 0.1 0.1 0.4 0.2 0.2 0.1 0.4 0.1 0.2 0.1 0.5 0.2 0.2 0.1 0.4 0.2 0.1 0.2 0.3 0.4 0.1 0.2 0.1 0.5 0 0.3-0.2 0.6-0.1 0.3-0.3 0.5-0.2 0.2-0.6 0.3-0.3 0.1-0.8 0.1-0.5 0-0.9-0.1-0.4-0.2-0.7-0.4l0.2-0.4q0.1 0 0.1-0.1 0.1 0 0.2 0 0 0 0.1 0.1 0.1 0 0.3 0.1 0.1 0.1 0.3 0.2 0.2 0 0.5 0 0.2 0 0.4 0 0.2-0.1 0.3-0.2 0.1-0.1 0.2-0.3 0.1-0.1 0.1-0.3 0-0.2-0.1-0.3-0.2-0.1-0.3-0.2-0.2-0.1-0.4-0.2-0.3 0-0.5-0.1-0.2-0.1-0.5-0.2-0.2-0.1-0.4-0.2-0.1-0.2-0.2-0.4-0.1-0.2-0.1-0.5 0-0.3 0.1-0.6 0.1-0.2 0.3-0.4 0.2-0.2 0.5-0.3 0.4-0.1 0.8-0.1 0.4 0 0.8 0.1 0.4 0.2 0.7 0.4z"/><path class="c" d="m83 14q-0.6 0-0.9-0.3-0.3-0.3-0.3-0.9v-2.9h-0.6q-0.1 0-0.1-0.1-0.1 0-0.1-0.1v-0.4l0.8-0.1 0.2-1.4q0-0.1 0.1-0.2 0 0 0.1 0h0.4v1.6h1.4v0.7h-1.4v2.8q0 0.3 0.2 0.5 0.1 0.1 0.4 0.1 0.1 0 0.2 0 0.1 0 0.2-0.1 0 0 0.1-0.1 0 0 0.1 0 0 0 0.1 0.1l0.2 0.4q-0.2 0.2-0.5 0.3-0.3 0.1-0.6 0.1z"/><path class="c" d="m88.8 13.3q-0.2 0.2-0.4 0.3-0.2 0.2-0.5 0.3-0.2 0-0.5 0.1-0.2 0-0.5 0-0.5 0-0.9-0.1-0.4-0.2-0.7-0.5-0.4-0.4-0.5-0.8-0.2-0.5-0.2-1.1 0-0.5 0.2-1 0.1-0.4 0.4-0.7 0.3-0.4 0.7-0.5 0.4-0.2 1-0.2 0.4 0 0.8 0.1 0.3 0.2 0.6 0.4 0.3 0.3 0.4 0.7 0.2 0.4 0.2 0.9 0 0.2-0.1 0.3 0 0.1-0.1 0.1h-3.3q0.1 0.4 0.2 0.7 0.1 0.4 0.3 0.6 0.2 0.2 0.5 0.3 0.2 0.2 0.6 0.2 0.3 0 0.5-0.1 0.2-0.1 0.4-0.2 0.2-0.1 0.3-0.1 0.1-0.1 0.2-0.1 0.1 0 0.1 0.1zm-0.6-2.3q0-0.3-0.1-0.5-0.1-0.3-0.3-0.4-0.1-0.2-0.4-0.3-0.2-0.1-0.5-0.1-0.6 0-0.9 0.3-0.4 0.4-0.5 1z"/><path class="c" d="m90.7 10.1q0.2-0.5 0.6-0.8 0.3-0.2 0.8-0.2 0.1 0 0.3 0 0.1 0 0.2 0.1v0.6q-0.1 0.2-0.2 0.2-0.1 0-0.2-0.1-0.1 0-0.3 0-0.2 0-0.4 0.1-0.2 0-0.3 0.2-0.1 0.1-0.2 0.3-0.2 0.2-0.2 0.4v3.1h-0.9v-4.8h0.5q0.1 0 0.2 0 0 0.1 0 0.2z"/><path class="c" d="m96.1 9.9q0 0.2-0.1 0.2-0.1 0-0.2-0.1-0.1-0.1-0.2-0.1-0.2-0.1-0.3-0.1-0.2-0.1-0.5-0.1-0.2 0-0.3 0.1-0.2 0-0.3 0.1-0.2 0.1-0.2 0.2-0.1 0.2-0.1 0.3 0 0.2 0.1 0.3 0.1 0.1 0.3 0.2 0.2 0.1 0.4 0.2 0.2 0.1 0.5 0.1 0.2 0.1 0.4 0.2 0.2 0.1 0.4 0.2 0.2 0.2 0.3 0.4 0.1 0.2 0.1 0.5 0 0.3-0.1 0.6-0.1 0.3-0.4 0.5-0.2 0.2-0.5 0.3-0.4 0.1-0.8 0.1-0.5 0-0.9-0.1-0.4-0.2-0.7-0.4l0.2-0.4q0 0 0.1-0.1 0 0 0.1 0 0.1 0 0.2 0.1 0.1 0 0.2 0.1 0.1 0.1 0.3 0.2 0.2 0 0.5 0 0.3 0 0.5 0 0.1-0.1 0.3-0.2 0.1-0.1 0.1-0.3 0.1-0.1 0.1-0.3 0-0.2-0.1-0.3-0.1-0.1-0.3-0.2-0.2-0.1-0.4-0.2-0.2 0-0.4-0.1-0.3-0.1-0.5-0.2-0.2-0.1-0.4-0.2-0.2-0.2-0.3-0.4-0.1-0.2-0.1-0.5 0-0.3 0.1-0.6 0.1-0.2 0.3-0.4 0.3-0.2 0.6-0.3 0.3-0.1 0.7-0.1 0.5 0 0.9 0.1 0.3 0.2 0.6 0.4z"/><path class="c" d="m98.9 14q-0.5 0-0.8-0.3-0.4-0.3-0.4-0.9v-2.9h-0.5q-0.1 0-0.2-0.1 0 0 0-0.1v-0.4l0.8-0.1 0.2-1.4q0-0.1 0-0.2 0.1 0 0.2 0h0.4v1.6h1.4v0.7h-1.4v2.8q0 0.3 0.1 0.5 0.2 0.1 0.4 0.1 0.2 0 0.3 0 0.1 0 0.1-0.1 0.1 0 0.1-0.1 0.1 0 0.1 0 0.1 0 0.2 0.1l0.2 0.4q-0.2 0.2-0.5 0.3-0.3 0.1-0.7 0.1z"/><path class="c" d="m107.5 9.2l-1.6 4.8h-0.6q-0.2 0-0.2-0.2l-1.1-3.3q0-0.1 0-0.2-0.1-0.1-0.1-0.2 0 0.1 0 0.2-0.1 0.1-0.1 0.2l-1.1 3.3q0 0.2-0.2 0.2h-0.6l-1.6-4.8h0.7q0.1 0 0.2 0 0 0.1 0.1 0.1l0.9 3.1q0.1 0.4 0.1 0.7 0.1-0.2 0.1-0.3 0-0.2 0.1-0.4l1-3.1q0-0.1 0.1-0.1 0.1-0.1 0.1 0h0.4q0.1 0 0.2 0 0 0 0.1 0.1l1 3.1q0 0.2 0 0.4 0.1 0.1 0.1 0.3 0.1-0.2 0.1-0.3 0-0.2 0.1-0.4l0.9-3.1q0 0 0.1-0.1 0.1 0 0.2 0z"/><path class="c" d="m110.3 9.1q0.5 0 0.9 0.2 0.5 0.1 0.8 0.5 0.3 0.3 0.4 0.7 0.2 0.5 0.2 1.1 0 0.5-0.2 1-0.1 0.4-0.4 0.8-0.3 0.3-0.8 0.5-0.4 0.1-0.9 0.1-0.5 0-1-0.1-0.4-0.2-0.7-0.5-0.3-0.4-0.5-0.8-0.1-0.5-0.1-1 0-0.6 0.1-1.1 0.2-0.4 0.5-0.7 0.3-0.4 0.7-0.5 0.5-0.2 1-0.2zm0 4.3q0.7 0 1.1-0.5 0.3-0.5 0.3-1.3 0-0.9-0.3-1.4-0.4-0.5-1.1-0.5-0.4 0-0.6 0.2-0.3 0.1-0.5 0.3-0.2 0.3-0.3 0.6 0 0.3 0 0.8 0 0.8 0.3 1.3 0.4 0.5 1.1 0.5z"/><path class="c" d="m63.7 23.2q0.1 0 0.2 0l0.3 0.4q-0.4 0.5-1 0.8-0.6 0.3-1.4 0.3-0.7 0-1.3-0.3-0.6-0.3-1.1-0.7-0.4-0.5-0.6-1.1-0.2-0.7-0.2-1.4 0-0.8 0.2-1.4 0.2-0.7 0.7-1.1 0.4-0.5 1-0.8 0.6-0.2 1.4-0.2 0.7 0 1.3 0.2 0.5 0.3 0.9 0.7l-0.3 0.4q0 0 0 0.1-0.1 0-0.2 0 0 0-0.2-0.1-0.1-0.1-0.3-0.2-0.2-0.1-0.5-0.2-0.3-0.1-0.7-0.1-0.5 0-1 0.2-0.4 0.2-0.7 0.5-0.4 0.3-0.5 0.8-0.2 0.5-0.2 1.2 0 0.6 0.2 1.1 0.2 0.5 0.5 0.9 0.3 0.3 0.7 0.5 0.5 0.2 1 0.2 0.3 0 0.5-0.1 0.2 0 0.5-0.1 0.2-0.1 0.3-0.2 0.2-0.1 0.4-0.3 0.1 0 0.1 0z"/><path class="c" d="m69.1 19.8l-2.7 6.2q0 0.1-0.1 0.1 0 0.1-0.2 0.1h-0.6l0.9-1.9-2-4.5h0.7q0.1 0 0.2 0 0 0.1 0.1 0.1l1.3 3.1q0 0.2 0.1 0.4 0.1-0.2 0.1-0.4l1.3-3.1q0 0 0.1-0.1 0 0 0.1 0z"/><path class="c" d="m70.2 24.6v-4.1l-0.6-0.1q-0.1 0-0.1 0-0.1-0.1-0.1-0.2v-0.3h0.8v-0.5q0-0.4 0.1-0.7 0.1-0.4 0.3-0.6 0.2-0.2 0.5-0.3 0.3-0.1 0.7-0.1 0.3 0 0.6 0.1v0.4q0 0.1-0.1 0.1-0.1 0-0.3 0-0.3 0-0.4 0.1-0.2 0-0.3 0.2-0.2 0.1-0.2 0.3-0.1 0.2-0.1 0.5v0.5h1.4v0.6h-1.4v4.1z"/><path class="c" d="m74 20.7q0.2-0.5 0.5-0.7 0.4-0.3 0.9-0.3 0.1 0 0.3 0 0.1 0 0.2 0.1l-0.1 0.6q0 0.2-0.1 0.2-0.1 0-0.2-0.1-0.1 0-0.3 0-0.2 0-0.4 0.1-0.2 0-0.3 0.2-0.2 0.1-0.3 0.3-0.1 0.2-0.2 0.4v3.1h-0.8v-4.8h0.5q0.1 0 0.2 0 0 0.1 0 0.2z"/><path class="c" d="m80.8 19.8l-2.7 6.2q0 0.1-0.1 0.1-0.1 0.1-0.2 0.1h-0.6l0.9-1.9-2-4.5h0.7q0.1 0 0.2 0 0 0.1 0.1 0.1l1.2 3.1q0.1 0.2 0.2 0.4 0-0.2 0.1-0.4l1.3-3.1q0 0 0.1-0.1 0 0 0.1 0z"/><path class="c" d="m84.9 20.1q0 0.1-0.1 0.2 0 0.1-0.1 0.2l-2.6 3.4h2.7v0.7h-3.7v-0.4q0 0 0.1-0.1 0-0.1 0.1-0.2l2.6-3.5h-2.6v-0.6h3.6z"/><path class="c" d="m85.7 20.4q0.4-0.3 0.9-0.5 0.4-0.2 1-0.2 0.4 0 0.7 0.1 0.3 0.1 0.5 0.4 0.2 0.2 0.4 0.6 0.1 0.3 0.1 0.7v3.1h-0.4q-0.1 0-0.2-0.1-0.1 0-0.1-0.1l-0.1-0.5q-0.2 0.2-0.4 0.3-0.2 0.2-0.4 0.3-0.2 0-0.4 0.1-0.2 0-0.5 0-0.3 0-0.5 0-0.3-0.1-0.4-0.3-0.2-0.1-0.3-0.4-0.1-0.2-0.1-0.5 0-0.3 0.1-0.6 0.2-0.2 0.5-0.4 0.4-0.2 0.9-0.4 0.6-0.1 1.4-0.1v-0.4q0-0.6-0.2-0.9-0.3-0.2-0.7-0.2-0.3 0-0.5 0-0.3 0.1-0.4 0.2-0.2 0.1-0.3 0.2-0.1 0.1-0.2 0.1-0.1 0-0.1-0.1-0.1 0-0.1-0.1zm2.7 2q-0.6 0-1 0.1-0.4 0-0.7 0.2-0.2 0.1-0.4 0.2-0.1 0.2-0.1 0.4 0 0.2 0.1 0.3 0.1 0.2 0.2 0.3 0.1 0 0.2 0.1 0.2 0 0.3 0 0.2 0 0.4 0 0.2-0.1 0.4-0.1 0.2-0.1 0.3-0.3 0.2-0.1 0.3-0.2z"/><path class="c" d="m93.9 20.6q0 0.1-0.1 0.1 0 0-0.1 0-0.1 0-0.1 0-0.1-0.1-0.2-0.2-0.2 0-0.4-0.1-0.1-0.1-0.4 0-0.4 0-0.6 0.1-0.3 0.1-0.5 0.3-0.2 0.3-0.3 0.6-0.1 0.3-0.1 0.8 0 0.4 0.1 0.7 0.1 0.4 0.3 0.6 0.2 0.2 0.5 0.4 0.2 0.1 0.5 0.1 0.4 0 0.6-0.1 0.2-0.1 0.3-0.2 0.1 0 0.2-0.1 0.1-0.1 0.2-0.1 0.1 0 0.1 0.1l0.3 0.3q-0.2 0.2-0.4 0.3-0.2 0.2-0.4 0.3-0.2 0.1-0.5 0.1-0.2 0-0.5 0-0.5 0-0.8-0.1-0.4-0.2-0.7-0.5-0.3-0.3-0.5-0.8-0.1-0.4-0.1-1 0-0.6 0.1-1 0.2-0.5 0.5-0.8 0.3-0.3 0.7-0.5 0.4-0.2 0.9-0.2 0.5 0 0.9 0.2 0.4 0.1 0.7 0.4z"/><path class="c" d="m96 19.8v5.1q0 0.3-0.1 0.6-0.1 0.2-0.2 0.4-0.2 0.2-0.5 0.3-0.2 0.1-0.6 0.1-0.1 0-0.3 0-0.1 0-0.2-0.1v-0.4q0-0.1 0-0.1 0.1 0 0.1 0 0 0 0.1 0 0.1 0 0.2 0 0.3 0 0.5-0.2 0.1-0.2 0.1-0.6v-5.1zm0.2-1.5q0 0.1 0 0.2-0.1 0.1-0.2 0.2-0.1 0.1-0.2 0.1-0.1 0.1-0.2 0.1-0.1 0-0.2-0.1-0.1 0-0.2-0.1-0.1-0.1-0.1-0.2-0.1-0.1-0.1-0.2 0-0.2 0.1-0.3 0-0.1 0.1-0.2 0.1-0.1 0.2-0.1 0.1-0.1 0.2-0.1 0.1 0 0.2 0.1 0.1 0 0.2 0.1 0.1 0.1 0.2 0.2 0 0.1 0 0.3z"/><path class="c" d="m98.4 18.3q0 0.1 0 0.2-0.1 0.1-0.1 0.2-0.1 0.1-0.2 0.1-0.2 0.1-0.3 0.1-0.1 0-0.2-0.1-0.1 0-0.2-0.1-0.1-0.1-0.1-0.2-0.1-0.1-0.1-0.2 0-0.2 0.1-0.3 0-0.1 0.1-0.2 0.1-0.1 0.2-0.1 0.1-0.1 0.2-0.1 0.1 0 0.3 0.1 0.1 0 0.2 0.1 0 0.1 0.1 0.2 0 0.1 0 0.3zm-0.1 1.5v4.8h-0.9v-4.8z"/><path fill-rule="evenodd" class="d" d="m0 38v-35h1v35z"/></svg>