<svg version="1.2" xmlns="http://www.w3.org/2000/svg" viewBox="0 0 620 146" width="620" height="146"><style>.a{fill:none;stroke:#948688;stroke-width:2}.b{fill:none;stroke:#b6b8b7;stroke-width:2}.c{fill:none;stroke:#decdd0;stroke-width:2}.d{fill:none;stroke:#bc5368;stroke-width:2}.e{fill:none;stroke:#dd8598;stroke-width:2}.f{fill:none;stroke:#363838;stroke-width:2}.g{fill:#6c706f}.h{fill:#bc9ba0}.i{fill:#fff}.j{fill:#bb0a30}</style><path class="a" d="m210.3 1.1q-8.4 0.7-27.6 0.5-32.6-0.3-141.7 0.2"/><path class="b" d="m41 1.8l-37.7 0.1q-0.1 0-0.2 0 0 0.1-0.1 0.1-0.1 0.1-0.1 0.2 0 0 0 0.1l0.3 70.6"/><path class="a" d="m3.2 72.9q-0.6 1-0.6 1.3 0.2 34.6-0.4 69.1"/><path class="c" d="m3.2 72.9l0.7 0.2"/><path class="d" d="m3.9 73.1v69.2q0 0.1 0 0.2 0 0.1 0.1 0.2 0.1 0.1 0.2 0.1 0.1 0 0.2 0h210.2q0.1 0 0.2 0 0.1 0 0.2-0.1 0-0.1 0.1-0.2 0 0 0-0.1l0.2-69.4"/><path class="c" d="m215.3 73l0.3-70.6q0-0.1-0.1-0.2 0-0.1-0.1-0.1-0.1-0.1-0.2-0.2-0.1 0-0.2 0l-174-0.1"/><path class="e" d="m215.3 73l-211.4 0.1"/><path class="f" d="m399 76.3q1.8-16.1 0-32.1"/><path class="f" d="m374.6 41q2.8 1.1 5.2-0.1"/><path class="g" d="m210.3 1.1q-8.4 0.7-27.6 0.5-32.6-0.3-141.7 0.2l-37.7 0.1q-0.1 0-0.2 0 0 0.1-0.1 0.1-0.1 0.1-0.1 0.2 0 0 0 0.1l0.3 70.6q-0.6 1-0.6 1.4 0.2 34.5-0.4 69l-0.1-142q0-0.1 0-0.1 0-0.1 0-0.1 0.1 0 0.1 0 0.1 0 0.1 0z"/><path class="h" d="m2.2 143.3q0.6-34.5 0.4-69.1 0-0.3 0.6-1.3l0.7 0.2v69.2q0 0.1 0 0.2 0 0.1 0.1 0.2 0.1 0.1 0.2 0.1 0.1 0 0.2 0h210.2q0.1 0 0.2 0 0.1 0 0.2-0.1 0-0.1 0.1-0.2 0 0 0-0.1l0.2-69.5 0.3-70.5q0-0.1-0.1-0.2 0-0.1-0.1-0.1-0.1-0.1-0.2-0.2-0.1 0-0.2 0l-174-0.1q109.1-0.5 141.8-0.2 19.1 0.2 27.5-0.5h6.1q0.1 0 0.2 0 0.1 0.1 0.2 0.2 0.1 0 0.1 0.1 0.1 0.1 0.1 0.2v142.8q0 0.1-0.1 0.2 0 0.1-0.1 0.2-0.1 0-0.2 0.1-0.1 0-0.2 0h-213.8q-0.1 0-0.2 0-0.1 0-0.2-0.1-0.1-0.1-0.1-0.2-0.1-0.1-0.1-0.2 0-0.6 0.2-1.1z"/><path class="i" d="m41 1.8l174 0.1q0.1 0 0.2 0 0.1 0.1 0.2 0.2 0.1 0 0.1 0.1 0.1 0.1 0.1 0.2l-0.3 70.6-211.4 0.1-0.7-0.2-0.3-70.6q0-0.1 0-0.1 0-0.1 0.1-0.2 0.1 0 0.1-0.1 0.1 0 0.2 0z"/><path fill-rule="evenodd" d="m564.4 37.1c-2.3 0-4.2-1.8-4.2-4.1 0-2.3 1.9-4.1 4.2-4.1 2.2 0 4.1 1.8 4.1 4.1 0 2.3-1.9 4.1-4.1 4.1z"/><path  d="m291.2 67.9q0 0 0 0 0 0.1 0 0.1-0.1 0-0.1 0.1 0 0-0.1 0h-7.1q-0.1 0-0.1 0-0.1 0-0.1 0 0-0.1-0.1-0.1 0 0 0-0.1l-8-12.3q-0.1-0.2-0.3-0.3-0.1-0.2-0.3-0.3-0.2-0.1-0.4-0.1-0.2-0.1-0.4-0.1h-3.9q-0.1 0-0.3 0.1-0.1 0-0.2 0.1-0.1 0.1-0.1 0.2-0.1 0.2-0.1 0.3v12q0 0.1 0 0.2-0.1 0.1-0.2 0.2-0.1 0.1-0.2 0.2-0.1 0-0.2 0h-5.6q-0.1 0-0.2 0-0.1-0.1-0.2-0.2-0.1-0.1-0.1-0.2-0.1-0.1-0.1-0.2v-34.4q0-0.1 0.1-0.2 0-0.2 0.1-0.3 0.1-0.1 0.2-0.2 0.1 0 0.3 0 6.9-1.3 14-0.4c7.7 0.9 12.3 5.5 11.2 13.4q-0.8 5.3-5.9 7.5-0.2 0-0.3 0.2-0.1 0.1-0.2 0.3 0 0.2 0 0.4 0 0.1 0.2 0.3 4.9 6.4 8.7 13.8zm-21.6-29.7v10.2q0 0.1 0 0.2 0.1 0.1 0.2 0.2 0 0.1 0.2 0.1 0.1 0.1 0.2 0.1h4.8q1.3 0 2.6-0.4 1.2-0.4 2.2-1.2 0.9-0.7 1.5-1.7 0.5-0.9 0.5-2v-0.8q0-1.1-0.5-2-0.6-1-1.5-1.7-1-0.8-2.2-1.2-1.3-0.4-2.6-0.4h-4.8q-0.1 0-0.2 0.1-0.2 0-0.2 0.1-0.1 0.1-0.2 0.2 0 0.1 0 0.2z"/><path  d="m555.4 63q0.3 0 0.5 0.1 0.2 0.1 0.3 0.3 0.2 0.2 0.2 0.4 0.1 0.3 0.1 0.5l-0.7 3.2q-0.1 0.2-0.2 0.4-0.1 0.2-0.3 0.4-0.2 0.1-0.4 0.2-0.2 0.1-0.4 0.1-9 0.2-9-9.1 0-13 0-25.3 0-0.2 0-0.4 0.1-0.1 0.2-0.3 0.1-0.1 0.3-0.2 0.2-0.1 0.3-0.1l5.2-0.9q0.1 0 0.3 0 0.1 0 0.3 0.2 0.1 0.1 0.2 0.2 0.1 0.2 0.1 0.3-0.1 1.1-0.1 25.1c0 2.4 0.5 4.7 3.1 4.9z"/><path  d="m581.7 33.1v7q0 0.2 0.1 0.3 0 0.1 0.1 0.2 0.1 0.1 0.2 0.2 0.2 0 0.3 0h8.2q0.2 0 0.3 0.1 0.2 0 0.3 0.1 0.1 0.1 0.1 0.3 0.1 0.1 0.1 0.2v4q0 0.2-0.1 0.3-0.1 0.2-0.2 0.3-0.1 0.2-0.3 0.2-0.1 0.1-0.3 0.1h-8q-0.1 0-0.3 0.1-0.1 0-0.2 0.1-0.1 0.1-0.2 0.3 0 0.1 0 0.2 0 1.1 0.1 12c0 4.7 5.2 4.5 8.2 3.2q0.2-0.1 0.4-0.1 0.3 0 0.5 0.1 0.2 0.1 0.3 0.3 0.2 0.2 0.2 0.4l0.6 3.3q0 0.3 0 0.5-0.1 0.3-0.2 0.5-0.1 0.2-0.3 0.3-0.2 0.2-0.5 0.2c-7.2 2-15.8 1.3-16.1-8.3q-0.3-9.3-0.2-25.3 0-0.1 0.1-0.3 0.1-0.2 0.2-0.3 0.1-0.1 0.2-0.2 0.2-0.1 0.4-0.1l5.1-0.9q0.2-0.1 0.4 0 0.1 0 0.3 0.1 0.1 0.2 0.2 0.3 0 0.2 0 0.3z"/><path  d="m354.8 54.7c0.2 7.6 5.6 10.1 12.3 7.5q0.2-0.1 0.4-0.1 0.3 0.1 0.5 0.2 0.2 0.1 0.4 0.3 0.1 0.2 0.2 0.5l0.5 3.2q0.1 0.3 0 0.5 0 0.3-0.1 0.5-0.2 0.2-0.4 0.3-0.2 0.2-0.4 0.2c-10.5 3.2-20-1.1-20.2-13-0.3-11.9 9.1-16.6 19.7-13.8q0.2 0 0.4 0.2 0.2 0.1 0.4 0.3 0.1 0.2 0.2 0.5 0 0.2 0 0.5l-0.5 3.2q0 0.3-0.1 0.5-0.2 0.2-0.4 0.4-0.2 0.1-0.5 0.1-0.2 0.1-0.5 0c-6.7-2.4-12 0.4-11.9 8z"/><path  d="m441.2 40c1.7 0 3.5 0.3 5.1 1 1.6 0.8 3.1 1.8 4.3 3.2 1.3 1.3 2.3 2.9 3 4.6 0.6 1.8 1 3.7 1 5.6 0 1.9-0.3 3.8-1 5.6-0.6 1.7-1.6 3.3-2.8 4.7-1.3 1.3-2.7 2.4-4.3 3.2-1.7 0.7-3.4 1.1-5.1 1.1-1.8 0-3.5-0.3-5.2-1.1-1.6-0.7-3.1-1.7-4.3-3.1-1.3-1.3-2.3-2.9-2.9-4.7-0.7-1.7-1.1-3.6-1.1-5.5 0-1.9 0.3-3.8 1-5.6 0.6-1.7 1.6-3.4 2.8-4.7 1.3-1.4 2.7-2.4 4.4-3.2 1.6-0.7 3.3-1.1 5.1-1.1zm0 5.7q-1.3 0-2.5 0.7-1.2 0.7-2.1 1.9-0.9 1.2-1.4 2.8c-0.3 1.1-0.5 2.3-0.5 3.4 0 1.2 0.2 2.3 0.5 3.4q0.5 1.6 1.4 2.8 0.9 1.3 2.2 2 1.2 0.6 2.5 0.6 1.3 0 2.5-0.7 1.2-0.6 2.1-1.9 0.9-1.2 1.4-2.8c0.3-1.1 0.5-2.2 0.5-3.4 0-1.2-0.2-2.3-0.5-3.4q-0.5-1.6-1.4-2.8-1-1.3-2.2-1.9-1.2-0.7-2.5-0.7z"/><path  d="m458.5 66.4l0.8-4q0.1-0.1 0.1-0.3 0.1-0.1 0.3-0.2 0.1 0 0.3-0.1 0.1 0 0.3 0.1c3.1 1.1 7.7 2.3 10.7 0.7q0.4-0.2 0.6-0.5 0.3-0.3 0.4-0.7 0.1-0.3 0.1-0.7-0.1-0.4-0.3-0.7c-1.5-2.3-6.3-3.6-8.4-4.6-5.5-2.6-5.9-9.4-1.6-13.2q0.1-0.1 0.2-0.2 0.2-0.1 0.3-0.2 0.1 0 0.3-0.1 0.1-0.1 0.2-0.2 6-2.6 13.4-0.3 0.2 0 0.4 0.2 0.2 0.1 0.3 0.3 0.1 0.2 0.2 0.4 0 0.3 0 0.5l-0.7 3.2q0 0.3-0.2 0.5-0.1 0.1-0.3 0.3-0.2 0.1-0.5 0.1-0.2 0-0.4-0.1-4.4-1.8-8.3-0.4-0.2 0-0.3 0.1-0.1 0.1-0.3 0.2-0.1 0.1-0.2 0.3-0.1 0.1-0.1 0.3-0.8 2.4 2.2 3.7c5.2 2.2 10.2 3.3 10.5 9.2 0.6 10.4-13.1 9.6-19.4 7.5q-0.2-0.1-0.3-0.2-0.1-0.1-0.2-0.2-0.1-0.2-0.1-0.3 0-0.2 0-0.4z"/><path  d="m526.4 40c1.8-0.1 3.5 0.3 5.2 1 1.6 0.7 3.1 1.8 4.3 3.2 1.2 1.3 2.2 2.9 2.9 4.6 0.7 1.8 1.1 3.7 1.1 5.6 0 1.9-0.3 3.8-1 5.6-0.7 1.7-1.6 3.3-2.9 4.7-1.2 1.4-2.6 2.4-4.3 3.2-1.6 0.7-3.3 1.1-5.1 1.1-1.7 0-3.4-0.3-5.1-1.1-1.6-0.7-3.1-1.7-4.3-3.1-1.3-1.3-2.3-2.9-2.9-4.7-0.7-1.7-1.1-3.6-1.1-5.5 0-1.9 0.3-3.8 1-5.6 0.6-1.8 1.6-3.4 2.8-4.7 1.3-1.4 2.7-2.5 4.3-3.2 1.7-0.7 3.4-1.1 5.1-1.1zm0.1 5.7q-1.3 0-2.5 0.7-1.2 0.6-2.1 1.9-0.9 1.2-1.4 2.8c-0.4 1.1-0.5 2.3-0.5 3.4 0 1.2 0.1 2.3 0.5 3.4q0.5 1.6 1.4 2.8 0.9 1.3 2.1 1.9 1.2 0.7 2.5 0.7 1.3 0 2.5-0.7 1.2-0.6 2.2-1.9 0.9-1.2 1.4-2.8c0.3-1.1 0.5-2.3 0.5-3.4 0-1.2-0.2-2.3-0.5-3.4q-0.5-1.6-1.5-2.8-0.9-1.3-2.1-1.9-1.2-0.7-2.5-0.7z"/><path  d="m610.7 50.4l-0.4-2q0-0.5-0.2-0.8-0.2-0.4-0.6-0.7-0.3-0.3-0.7-0.5-0.3-0.2-0.8-0.3-5.5-0.7-8.7 0.6-0.1 0-0.3 0-0.2 0-0.4-0.1-0.1-0.1-0.2-0.3-0.2-0.1-0.2-0.3l-0.6-3.7q-0.1-0.2 0-0.4 0-0.3 0.1-0.4 0.2-0.2 0.3-0.3 0.2-0.1 0.4-0.2c5.8-1 15.9-2.5 17.9 5q0 0.1 0.1 0.2 0 0.1 0.1 0.2 0.1 0 0.2 0 0.1 0.1 0.2 0.1 0.1 0 0.1 0 0.2-0.1 0.4 0 0.2 0.1 0.3 0.2 0.1 0.1 0.2 0.3 0.1 0.1 0.1 0.3v19.5q0 0.1 0 0.2 0 0.1 0 0.1-0.1 0.1-0.1 0.2 0 0 0 0.1-0.5 0.7-1.3 0.4-0.1-0.1-0.2-0.1-0.1 0-0.2 0-0.2 0-0.3 0-0.1 0-0.2 0c-7.7 1.7-22.4 3.2-20.5-9.7 1-6.5 8.8-7.3 14.4-6.5q0.3 0 0.5-0.1 0.2-0.1 0.3-0.2 0.2-0.2 0.3-0.4 0-0.2 0-0.4zm0.2 11.6l-0.1-4.5q0-0.3-0.1-0.6-0.1-0.2-0.3-0.4-0.2-0.2-0.4-0.3-0.3-0.1-0.5-0.1l-3.9 0.1q-0.8 0-1.5 0.2-0.8 0.3-1.3 0.8-0.6 0.5-0.9 1.1-0.3 0.6-0.3 1.3v0.4q0 0.7 0.4 1.3 0.3 0.7 0.8 1.1 0.6 0.5 1.3 0.8 0.8 0.2 1.6 0.2l3.8-0.1q0.3 0 0.6-0.1 0.2-0.1 0.4-0.3 0.2-0.2 0.3-0.4 0.1-0.3 0.1-0.5z"/><path  d="m343.1 56.1q-0.1 0.1-0.1 0.1 0 0.1-0.1 0.1 0 0.1-0.1 0.1 0 0-0.1 0h-15.8q-0.4 0-0.8 0.3-0.3 0.2-0.5 0.6-0.2 0.3-0.2 0.8 0 0.4 0.2 0.8l0.7 0.9q0.3 0.6 0.7 1 0.4 0.5 1 0.8 0.5 0.4 1 0.6 0.6 0.3 1.2 0.4 4.3 1.1 9.3-0.5 0.2-0.1 0.4-0.1 0.3 0 0.4 0.1 0.2 0.2 0.3 0.3 0.2 0.2 0.2 0.4l0.6 3.3q0 0.3 0 0.5-0.1 0.3-0.2 0.5-0.2 0.2-0.4 0.4-0.2 0.1-0.5 0.2c-8.2 2.1-18.7 1.8-21.2-8.3-1.7-6.6-0.1-14.4 6.3-17.9 4.3-2.2 11.2-1.9 14.7 2.2 2.8 3.2 3.3 8 2.9 12.4zm-17.2-4.5h10.7q0 0 0 0 0.1 0 0.1-0.1 0 0 0.1 0 0-0.1 0-0.1v-0.2q0-1.1-0.4-2.1-0.5-1-1.2-1.8-0.8-0.7-1.8-1.2-1-0.4-2.1-0.4h-0.2q-1.1 0-2.1 0.5-1 0.4-1.8 1.1-0.7 0.8-1.1 1.8-0.5 1-0.5 2.1v0.2q0 0 0.1 0.1 0 0 0 0.1 0 0 0.1 0 0 0 0.1 0z"/><path  d="m399 76.3q1.8-16.1 0-32.1-0.5-0.9-0.1-2.1 0-0.1 0.1-0.2 0-0.1 0.1-0.2 0.1-0.1 0.2-0.1 0.1-0.1 0.2-0.1 7.2-1.7 13.4-0.9c9.5 1.2 11.9 11.7 9.8 19.4-2.1 7.5-9.3 10.5-16.2 7.7q-0.2-0.1-0.4-0.1-0.2 0.1-0.3 0.2-0.2 0.1-0.3 0.2-0.1 0.2-0.1 0.4v8.4q0 0.2-0.1 0.3 0 0.2-0.1 0.3-0.2 0.2-0.3 0.2-0.2 0.1-0.4 0.1-6.7 0.6-5.5-1.4zm6.4-28.1v12.5q0 0.5 0.2 0.9 0.2 0.4 0.5 0.8 0.3 0.3 0.8 0.5 0.4 0.2 0.9 0.2h2.2q1.4-0.1 2.6-0.6 1.3-0.6 2.2-1.6 1-1 1.5-2.3 0.5-1.3 0.5-2.8v-2.7q0-1.5-0.5-2.8-0.6-1.3-1.5-2.3-1-1-2.2-1.6-1.3-0.5-2.6-0.5h-2.3q-0.4 0-0.9 0.2-0.4 0.1-0.7 0.5-0.3 0.3-0.5 0.7-0.2 0.4-0.2 0.9z"/><path  d="m491.3 67.7q-0.1 0-0.2 0-0.1 0-0.2 0.1-0.1 0-0.1 0.1-0.1 0.1-0.1 0.2v8.6q0 0.2 0 0.4-0.1 0.2-0.2 0.3-0.2 0.1-0.3 0.2-0.2 0.1-0.4 0.1h-4.6q-0.2 0-0.3-0.1-0.2-0.1-0.3-0.2-0.2-0.1-0.2-0.3-0.1-0.2-0.1-0.3v-34.3q0-0.2 0.1-0.4 0-0.1 0.1-0.3 0.2-0.1 0.3-0.2 0.2-0.1 0.4-0.2c8-1.7 18.9-2.7 22.5 6.9q1.5 4 0.8 9c-0.8 7-5 11.4-12.3 11.4-1.7 0-3.6-0.7-4.9-1zm-0.6-19.5v12.5q0 0.4 0.2 0.9 0.1 0.4 0.5 0.7 0.3 0.4 0.7 0.5 0.4 0.2 0.9 0.2h2.3q1.4 0 2.6-0.5 1.2-0.6 2.2-1.6 0.9-1 1.5-2.4 0.5-1.3 0.5-2.8v-2.4q0-1.5-0.5-2.8-0.5-1.4-1.4-2.4-1-1-2.2-1.6-1.2-0.6-2.6-0.6h-2.3q-0.5 0-0.9 0.2-0.4 0.1-0.8 0.5-0.3 0.3-0.5 0.7-0.2 0.5-0.2 0.9z"/><path  d="m305.7 47.3q0.1-0.1 0.1-0.3 0-0.1 0-0.3-0.1-0.1-0.3-0.2-0.1-0.1-0.3-0.1h-9.8q-0.2 0-0.4-0.1-0.2-0.1-0.4-0.2-0.1-0.2-0.2-0.4-0.1-0.2-0.1-0.4v-3.4q0-0.2 0.1-0.4 0.1-0.2 0.2-0.4 0.2-0.1 0.4-0.2 0.1-0.1 0.4-0.1h19q0.2 0 0.3 0.1 0.2 0 0.3 0.1 0.1 0.1 0.2 0.3 0.1 0.1 0.1 0.3c0.1 2.5-0.1 3.9-1.9 5.8q-5.4 6-11.1 14.2 0 0.1-0.1 0.2 0 0 0 0.1 0 0.2 0.1 0.2 0 0.1 0.1 0.2 0.4 0.4 0.9 0.4 6.4-0.1 11.2-0.1 0.2 0 0.4 0.1 0.2 0 0.4 0.2 0.1 0.1 0.2 0.3 0 0.2 0 0.4l0.1 3.7q-0.1 0.1-0.1 0.3-0.1 0.1-0.2 0.2-0.1 0.2-0.3 0.2-0.1 0.1-0.3 0.1h-20.6q-0.1 0-0.2 0-0.1-0.1-0.2-0.2-0.1 0-0.1-0.1-0.1-0.1-0.1-0.2-0.5-3 1.4-5.7 5.4-8.1 10.8-14.6z"/><path  d="m374.6 41q2.8 1.1 5.2-0.1h12.6q0.1 0 0.2 0 0.1 0 0.2 0.1 0.1 0.1 0.2 0.2 0.1 0.1 0.1 0.3c0.3 2.3 0 4-1.7 5.9q-5.4 6.1-11.1 14.2 0 0.1-0.1 0.2 0 0.1 0 0.2 0 0.1 0.1 0.2 0 0.1 0.1 0.1 0.4 0.4 0.7 0.3 7.7-0.1 11.4 0 0.2 0 0.4 0 0.2 0.1 0.3 0.3 0.2 0.1 0.2 0.3 0.1 0.2 0.1 0.3v3.8q0 0.1 0 0.3-0.1 0.1-0.2 0.2-0.1 0.2-0.3 0.2-0.2 0.1-0.3 0.1h-20.3q-0.1 0-0.2-0.1-0.2 0-0.3-0.1-0.1-0.1-0.2-0.2-0.1-0.2-0.1-0.3c-0.3-2.1 0.1-3.9 1.3-5.8q5-7.3 10.9-14.4 0.1-0.1 0.1-0.3 0-0.1 0-0.2-0.1-0.2-0.2-0.2-0.1-0.1-0.3-0.1h-10.3q-0.2 0-0.3-0.1-0.2 0-0.3-0.2-0.1-0.1-0.2-0.2 0-0.2 0-0.3v-3.9q0-0.2 0-0.3 0.1-0.1 0.1-0.3 0.1-0.1 0.3-0.1 0.1-0.1 0.2-0.1 1.1-0.3 1.7 0.1z"/><path class="g" d="m379.8 40.9q-2.4 1.2-5.2 0.1z"/><path fill-rule="evenodd" d="m561.8 40.8h5.4c0.3 0 0.6 0.3 0.6 0.6v26.1c0 0.3-0.3 0.6-0.6 0.6h-5.4c-0.3 0-0.6-0.3-0.6-0.6v-26.1c0-0.3 0.3-0.6 0.6-0.6z"/><path class="g" d="m399 76.3q-0.7-16.5 0-32.1 1.8 16 0 32.1z"/><path class="j" d="m215.3 73l-0.2 69.4q0 0.1 0 0.1-0.1 0.1-0.1 0.2-0.1 0.1-0.2 0.1-0.1 0-0.2 0h-210.2q-0.1 0-0.2 0-0.1 0-0.2-0.1-0.1-0.1-0.1-0.2 0-0.1 0-0.2v-69.2z"/><path  d="m262.8 115.6v-34.9q0-0.1 0-0.2 0.1-0.1 0.2-0.2 0-0.1 0.1-0.1 0.1-0.1 0.2-0.1c9.7-0.9 27.9-2.7 25.8 13.5-1.2 8.7-10.9 10.4-18.2 9.6q-0.3 0-0.5 0-0.2 0.1-0.4 0.3-0.2 0.2-0.3 0.4-0.1 0.2-0.1 0.5v11q0 0.1-0.1 0.2 0 0.2-0.1 0.3-0.1 0-0.2 0.1-0.1 0-0.3 0h-5.6q-0.1 0-0.2 0-0.1 0-0.2-0.1 0-0.1-0.1-0.1 0-0.1 0-0.2zm6.7-29.3l0.1 10.3q0 0.2 0.1 0.4 0 0.1 0.1 0.2 0.2 0.2 0.3 0.2 0.2 0.1 0.3 0.1h4.7q1.5 0 2.8-0.5 1.3-0.4 2.2-1.2 1-0.7 1.6-1.7 0.5-1 0.5-2.1v-1.1q0-1.1-0.5-2.1-0.6-1-1.6-1.8-1-0.7-2.3-1.1-1.3-0.4-2.7-0.4h-4.7q-0.2 0-0.3 0-0.2 0.1-0.3 0.2-0.1 0.1-0.2 0.3 0 0.2-0.1 0.3z"/><path  d="m334.1 110.7q0.2 0 0.4 0.1 0.2 0.2 0.4 0.3 0.1 0.2 0.2 0.5 0 0.2 0 0.4l-0.7 3.2q0 0.2-0.1 0.4-0.2 0.2-0.3 0.3-0.2 0.2-0.4 0.3-0.2 0-0.5 0.1-8.9 0.2-8.8-9 0-12.8-0.1-25 0-0.2 0.1-0.4 0.1-0.1 0.2-0.3 0.1-0.1 0.3-0.2 0.1-0.1 0.3-0.1l5-0.9q0.2 0 0.4 0 0.1 0.1 0.3 0.2 0.1 0.1 0.2 0.2 0 0.2 0 0.4 0 1 0 24.7c0 2.4 0.5 4.7 3.1 4.8z"/><path  d="m370.2 104.3q-0.1 0-0.1 0-0.1 0-0.1 0-0.1 0-0.1 0.1 0 0 0 0.1v10.7q0 0.2-0.1 0.3 0 0.2-0.1 0.3-0.1 0.1-0.3 0.2-0.1 0-0.3 0h-5q-0.2 0-0.3 0-0.1-0.1-0.2-0.2-0.1-0.1-0.2-0.2 0-0.1 0-0.3v-33.1q0-0.2 0-0.3 0.1-0.2 0.2-0.3 0.1-0.2 0.3-0.3 0.1 0 0.3-0.1l4.7-0.8q0.2 0 0.4 0 0.2 0.1 0.3 0.2 0.2 0.1 0.3 0.3 0 0.2 0 0.4v16.7q0 0.1 0.1 0.2 0.1 0.1 0.2 0.2 0.1 0 0.2 0 0.1-0.1 0.1-0.1l8.3-8.9q0.2-0.2 0.4-0.3 0.2-0.2 0.4-0.3 0.3-0.1 0.5-0.1 0.3-0.1 0.5-0.1h5.8q0.1 0 0.3 0.1 0.1 0.1 0.1 0.2 0.1 0.1 0.1 0.3-0.1 0.1-0.2 0.2l-10.1 11q-0.1 0-0.2 0.2 0 0.1 0 0.2 0 0.1 0 0.2 0.1 0.1 0.2 0.2 6.4 6.2 10.7 13.8 0.1 0.2 0.1 0.4 0 0.2-0.1 0.3-0.1 0.2-0.2 0.3-0.2 0-0.4 0.1h-5.2q-0.3-0.1-0.6-0.1-0.3-0.1-0.6-0.3-0.2-0.1-0.4-0.3-0.3-0.2-0.4-0.5-2.9-5-7.7-9.5-0.7-0.7-1.6-1.1z"/><path  d="m305.2 87.8c1.8 0 3.5 0.4 5.1 1.1 1.6 0.7 3.1 1.8 4.3 3.1 1.3 1.4 2.3 3 3 4.7 0.6 1.8 1 3.7 1 5.6 0 1.9-0.3 3.8-1 5.6-0.7 1.7-1.6 3.4-2.9 4.7-1.2 1.4-2.7 2.4-4.3 3.2-1.6 0.7-3.3 1.1-5.1 1.1-1.7 0-3.5-0.4-5.1-1.1-1.6-0.7-3.1-1.8-4.3-3.1-1.3-1.4-2.3-3-2.9-4.7-0.7-1.8-1.1-3.7-1.1-5.6 0-1.9 0.4-3.8 1-5.6 0.7-1.7 1.7-3.4 2.9-4.7 1.2-1.4 2.7-2.4 4.3-3.2 1.6-0.7 3.4-1.1 5.1-1.1zm0 5.8q-1.3 0-2.5 0.6-1.2 0.7-2.1 2-0.9 1.2-1.4 2.8c-0.3 1.1-0.5 2.2-0.5 3.4 0 1.1 0.2 2.3 0.5 3.3q0.5 1.6 1.4 2.9 1 1.2 2.2 1.9 1.2 0.6 2.5 0.6 1.3 0 2.5-0.6 1.2-0.7 2.1-2 1-1.2 1.5-2.8c0.3-1.1 0.4-2.2 0.4-3.4 0-1.1-0.1-2.3-0.5-3.3q-0.5-1.6-1.4-2.9-0.9-1.2-2.1-1.9-1.3-0.6-2.6-0.6z"/><path  d="m337.8 114.3l0.9-4q0-0.2 0.1-0.3 0.1-0.1 0.2-0.2 0.2-0.1 0.3-0.1 0.2 0 0.4 0.1c3 1.1 7.7 2.3 10.7 0.7q0.4-0.2 0.6-0.5 0.3-0.3 0.4-0.7 0.1-0.3 0.1-0.7-0.1-0.4-0.3-0.7c-1.5-2.3-6.3-3.7-8.4-4.6-5.5-2.6-5.9-9.5-1.6-13.3q0.1-0.1 0.3-0.2 0.1-0.1 0.2-0.1 0.1-0.1 0.3-0.2 0.1-0.1 0.3-0.1 5.9-2.6 13.4-0.4 0.2 0.1 0.4 0.2 0.2 0.2 0.3 0.4 0.1 0.2 0.1 0.4 0.1 0.2 0 0.4l-0.6 3.3q-0.1 0.2-0.2 0.4-0.2 0.2-0.4 0.3-0.2 0.1-0.4 0.1-0.3 0-0.5 0-4.3-1.8-8.3-0.5-0.1 0.1-0.3 0.1-0.1 0.1-0.3 0.3-0.1 0.1-0.2 0.2 0 0.2-0.1 0.3-0.8 2.4 2.2 3.7c5.3 2.3 10.2 3.4 10.5 9.4 0.6 10.4-13.2 9.5-19.5 7.3q-0.1 0-0.3-0.1-0.1-0.1-0.2-0.3 0-0.1-0.1-0.3 0-0.1 0-0.3z"/><path  d="m404.1 99.4q0.4 0 0.8-0.1 0.4-0.2 0.6-0.5 0.3-0.3 0.3-0.7 0.1-0.4-0.1-0.8l-0.4-1q-0.2-0.5-0.5-0.9-0.3-0.4-0.8-0.8-0.4-0.3-0.9-0.5-0.4-0.2-1-0.2-5.1-0.6-7.9 0.7-0.1 0.1-0.3 0.1-0.1 0-0.3-0.1-0.1-0.1-0.2-0.2-0.1-0.1-0.1-0.3l-0.7-4q-0.1-0.2 0-0.3 0-0.2 0.1-0.3 0.1-0.2 0.2-0.3 0.2-0.1 0.3-0.1c5.9-1.6 13.6-2.4 17.4 3q1.4 2 1.6 6.5 0.4 7.4 0 16.5 0 0.1 0 0.1 0 0.1-0.1 0.1 0 0.1-0.1 0.1 0 0.1-0.1 0.1c-7.5 1.2-23.1 3.9-21.8-9.2 0.8-6.8 8.3-7.8 14-6.9zm1.8 10.4l-0.1-4.5q0-0.2-0.1-0.5-0.1-0.2-0.3-0.4-0.2-0.2-0.4-0.3-0.3-0.1-0.6-0.1h-3.9q-0.8 0-1.5 0.2-0.7 0.3-1.3 0.7-0.5 0.5-0.8 1-0.3 0.6-0.3 1.2v1q0 0.7 0.3 1.2 0.3 0.6 0.9 1 0.5 0.5 1.3 0.7 0.7 0.2 1.5 0.2h3.9q0.3 0 0.5-0.1 0.3-0.1 0.5-0.3 0.2-0.2 0.3-0.4 0.1-0.3 0.1-0.6z"/></svg>